<svg class="main-svg" xmlns="http://www.w3.org/2000/svg" xmlns:xlink="http://www.w3.org/1999/xlink" width="700" height="500" style="" viewBox="0 0 700 500"><rect x="0" y="0" width="700" height="500" style="fill: rgb(255, 255, 255); fill-opacity: 1;"/><defs id="defs-7ff8ac"><g class="clips"><clipPath id="clip7ff8acxyplot" class="plotclip"><rect width="510" height="435"/></clipPath><clipPath class="axesclip" id="clip7ff8acx"><rect x="60" y="0" width="510" height="500"/></clipPath><clipPath class="axesclip" id="clip7ff8acy"><rect x="0" y="25" width="700" height="435"/></clipPath><clipPath class="axesclip" id="clip7ff8acxy"><rect x="60" y="25" width="510" height="435"/></clipPath></g><g class="gradients"/></defs><g class="bglayer"/><g class="layer-below"><g class="imagelayer"/><g class="shapelayer"/></g><g class="cartesianlayer"><g class="subplot xy"><g class="layer-subplot"><g class="shapelayer"/><g class="imagelayer"/></g><g class="gridlayer"><g class="x"><path class="xgrid crisp" transform="translate(104.97999999999999,0)" d="M0,25v435" style="stroke: rgb(238, 238, 238); stroke-opacity: 1; stroke-width: 1px;"/><path class="xgrid crisp" transform="translate(194.56,0)" d="M0,25v435" style="stroke: rgb(238, 238, 238); stroke-opacity: 1; stroke-width: 1px;"/><path class="xgrid crisp" transform="translate(283.89,0)" d="M0,25v435" style="stroke: rgb(238, 238, 238); stroke-opacity: 1; stroke-width: 1px;"/><path class="xgrid crisp" transform="translate(373.22,0)" d="M0,25v435" style="stroke: rgb(238, 238, 238); stroke-opacity: 1; stroke-width: 1px;"/><path class="xgrid crisp" transform="translate(462.56,0)" d="M0,25v435" style="stroke: rgb(238, 238, 238); stroke-opacity: 1; stroke-width: 1px;"/><path class="xgrid crisp" transform="translate(552.13,0)" d="M0,25v435" style="stroke: rgb(238, 238, 238); stroke-opacity: 1; stroke-width: 1px;"/></g><g class="y"><path class="ygrid crisp" transform="translate(0,408.52)" d="M60,0h510" style="stroke: rgb(238, 238, 238); stroke-opacity: 1; stroke-width: 1px;"/><path class="ygrid crisp" transform="translate(0,338.66)" d="M60,0h510" style="stroke: rgb(238, 238, 238); stroke-opacity: 1; stroke-width: 1px;"/><path class="ygrid crisp" transform="translate(0,268.8)" d="M60,0h510" style="stroke: rgb(238, 238, 238); stroke-opacity: 1; stroke-width: 1px;"/><path class="ygrid crisp" transform="translate(0,198.94)" d="M60,0h510" style="stroke: rgb(238, 238, 238); stroke-opacity: 1; stroke-width: 1px;"/><path class="ygrid crisp" transform="translate(0,129.07999999999998)" d="M60,0h510" style="stroke: rgb(238, 238, 238); stroke-opacity: 1; stroke-width: 1px;"/><path class="ygrid crisp" transform="translate(0,59.22)" d="M60,0h510" style="stroke: rgb(238, 238, 238); stroke-opacity: 1; stroke-width: 1px;"/></g></g><g class="zerolinelayer"/><path class="xlines-below"/><path class="ylines-below"/><g class="overlines-below"/><g class="xaxislayer-below"/><g class="yaxislayer-below"/><g class="overaxes-below"/><g class="plot" transform="translate(60, 25)" clip-path="url('#clip7ff8acxyplot')"><g class="scatterlayer mlayer"><g class="trace scatter trace3eb67b" style="stroke-miterlimit: 2; opacity: 1;"><g class="fills"/><g class="errorbars"/><g class="lines"><path class="js-line" d="M0,409.49L0.17,107.4L0.76,262.21L0.78,269.64L1.04,279.71L1.15,139.01L1.31,211.05L1.32,191.55L1.4,87.65L2,246.77L2.11,103.78L2.12,99.36L2.13,98.5L2.18,152.22L2.19,175.96L2.38,95.35L2.75,260.95L2.96,225.97L2.97,234.63L2.98,239.86L3.11,59.69L3.54,140.82L3.55,125.48L3.71,249.9L4.09,77.01L4.21,242.44L4.22,242.23L4.47,248.83L4.82,45.93L4.89,162.02L4.91,184.16L5.07,69.3L5.18,237L5.68,230.68L5.69,222.35L5.8,69.37L6.18,250.2L6.4,229.54L6.41,225.71L6.78,32.64L7.11,174.05L7.12,193.51L7.27,41.56L7.89,274.12L7.91,258.07L7.92,239.25L8.12,255.4L8.25,85.59L8.73,91.76L8.74,91.52L9.35,263.44L9.42,175.24L9.43,161.96L9.61,272.06L10.2,98.99L10.22,104.08L10.23,114.52L10.56,257.49L10.93,88.08L10.94,87.89L11.32,268.93L11.61,138.98L11.62,114.97L11.68,53.01L12.28,254.37L12.33,198.54L12.34,184.09L12.66,126.14L13.02,277.46L13.03,277.77L13.39,110.9L13.49,256.59L13.5,260.75L13.63,127.42L13.99,272.77L14.17,182.02L14.19,204.45L14.37,105.1L14.74,266.27L14.95,240.18L14.96,248.69L14.97,252.15L15.1,69.54L15.3,109.31L15.31,91.71L15.59,56.62L15.7,234.8L16.07,74.32L16.08,79.05L16.46,262.82L16.8,106.04L16.81,98.31L16.93,242.81L17.05,60.1L17.37,169.48L17.38,193.88L17.55,101.28L18.16,287.31L18.17,286.4L18.18,283.08L18.4,285.43L19.02,125.89L19.06,158.97L19.07,180.46L19.26,116.04L19.63,272.76L19.84,267.51L19.86,274.24L19.88,282.55L20.24,146.23L20.44,178.84L20.45,167.45L20.73,138.14L20.84,275.55L21.08,270.02L21.09,273.49L21.21,154.67L21.59,288.65L21.77,231.47L21.78,249.9L21.82,278.71L21.98,143.74L22.46,154.58L22.47,155.79L23.05,292.98L23.18,227.98L23.19,226.16L23.3,301.41L23.69,195.19L23.75,274.18L23.76,284.1L23.78,291.39L24.16,174.95L24.35,196.08L24.36,186.28L24.42,167.9L24.77,288.8L24.98,286.8L24.99,294.15L25.02,299.49L25.4,165.72L25.56,215.54L25.57,207.18L25.65,167.51L25.74,286.08L26.22,284.07L26.23,285.6L26.35,202.06L26.72,291.94L26.94,282.17L26.95,285.19L27.36,198.17L27.43,279.4L27.44,284.6L27.61,192.2L27.94,287L28.15,259.17L28.16,272.02L28.43,302.56L28.83,201.35L28.84,202.56L28.85,211.1L29.32,199.26L29.41,288.94L29.64,285.29L29.66,285.86L29.81,215.37L30.15,304.63L30.36,287.08L30.37,289.13L30.39,298.26L30.54,197.18L31,208.6L31.01,208.86L31.28,189.85L31.61,289.09L31.62,291.14L31.87,294.49L32.27,196.55L32.32,258.67L32.33,270.18L32.76,198.52L32.85,282.78L32.98,208.91L32.99,201.62L33,200.4L33.08,280.99L33.29,244.42L33.3,257.05L33.82,283.31L33.96,205.21L33.97,196.04L33.98,194.6L34.06,277.26L34.27,259.48L34.28,269.52L34.55,281.23L34.71,197.64L34.88,214.74L34.89,216.84L34.95,202.76L35.05,270.28L35.42,233.47L35.43,220.61L35.69,178.65L36.02,257.87L36.19,205.41L36.2,211.79L36.51,291.34L37,279.94L37.01,281.33L37.05,257.99L37.06,247.19L37.24,272.13L37.41,177.7L37.89,181.04L37.91,183.36L38.14,176.43L38.72,257.88L38.73,255.39L38.96,266.22L39.12,184.41L39.44,263.06L39.46,260.99L39.61,189.44L39.93,275.89L40.16,270.21L40.17,278.93L40.43,291.66L40.75,206.31L40.79,211.82L40.8,209.18L40.91,271.03L41.57,175.4L41.58,176.4L41.59,181.21L41.81,174.5L42.38,262.22L42.39,261.18L42.4,254.99L42.55,184.01L43.12,285.55L43.13,288.07L43.62,294.38L43.77,215.98L43.82,257L43.83,267.58L43.86,283.87L44.26,175.31L44.48,193.32L44.49,184.2L44.5,182.31L44.83,260.45L44.84,260.93L44.98,193.89L45.56,243.68L45.57,244.83L46.1,140.4L46.49,183.33L46.5,200.71L46.71,177.61L47.29,267.51L47.3,265.18L47.57,140.42L48.19,161.09L48.2,174.46L48.31,160.55L48.76,255.71L48.99,245.74L49,245.82L49.53,122.65L49.91,157.3L49.92,172.15L49.97,220.67L50.38,150.95L50.68,201.69L50.69,205.71L51,158.91L51.19,244.48L51.33,199.09L51.34,189.81L51.44,244.16L51.73,165.24L52.08,197.65L52.09,192.28L52.12,204.9L52.13,217.47L52.66,278.52L52.82,193.57L52.89,256.44L52.9,263.43L52.91,266.94L53.32,185.81L53.44,193.3L53.45,184.35L53.64,233.63L53.69,163.95L53.98,214.75L53.99,223.12L54.37,245.92L54.55,166.42L54.66,169.33L54.67,161.98L54.79,152.15L54.82,186.29L54.83,198.43L54.91,147.94L55.6,227.16L55.61,225.97L55.62,220.84L56.25,166.45L56.33,248.88L56.34,248.27L56.5,184.1L56.58,254.25L57.05,242.05L57.06,247.93L57.12,199.03L57.57,290.55L57.82,270.97L57.83,248.74L58.05,269.98L58.21,187.46L58.6,194.5L58.61,195.14L58.83,160.83L59.51,284.78L59.53,270.16L59.54,246.74L59.76,273.79L60.18,186.22L60.31,199.22L60.32,199.86L60.41,184.04L60.99,274.18L61.14,237.71L61.15,225.24L61.39,209.58L61.72,289.31L61.73,288.27L61.96,291.62L62.12,209.78L62.45,291.52L62.46,293.28L62.71,300.48L62.87,232.88L62.91,282.97L62.92,333.32L63.35,203.91L63.68,278.93L63.7,260.1L63.84,214.28L64.16,285.6L64.45,256.68L64.46,247.78L64.69,202.39L65.12,282.39L65.13,286.75L65.31,218.39L65.39,289.61L65.59,264.32L65.6,276.1L65.7,229.57L66.12,299.59L66.37,296.54L66.38,287.78L66.53,217.63L67.1,289.26L67.16,226.25L67.17,222.9L67.26,216.02L67.32,274.59L67.33,283.73L67.43,222.24L67.59,292.6L68,239.68L68.01,239.09L68.07,294.24L68.49,203.25L68.72,213.29L68.73,209.61L68.81,284.32L69.45,245.52L69.46,243.77L69.78,288.88L69.96,215.07L70.22,229.6L70.23,245.44L70.69,219.79L71.01,294.12L71.02,295.66L71.26,304.08L71.67,207.49L71.71,264.23L71.72,277.79L71.75,296.21L71.91,206.19L72.48,293.64L72.49,295.03L72.61,211.28L72.98,306.13L73.19,286.34L73.2,295.02L73.22,300.36L73.6,186.39L73.78,217.37L73.79,212.02L73.95,288.23L74.09,191.77L74.41,270L74.42,280.35L74.7,300.02L75.05,205.1L75.06,205.07L75.12,223.83L75.13,241.78L75.31,204.47L75.67,293.71L75.9,291.06L75.91,292.29L76.04,215.59L76.41,308L76.62,287.02L76.63,295.64L76.64,300.65L77.02,181.21L77.2,217.55L77.21,206.95L77.27,170.07L77.86,288.04L77.87,292.57L78,225.08L78.13,301.15L78.24,244.29L78.25,240.58L78.35,293.14L78.77,200.24L78.82,269.06L78.83,279.23L78.98,200.96L79.34,290.45L79.44,208.94L79.45,207.26L79.47,205.38L79.59,295.46L79.79,263.45L79.8,276.98L79.85,300.12L80.42,173.07L80.43,166.89L80.56,276.39L80.93,135.5L81.02,241.97L81.03,256.27L81.17,141.17L81.8,285.54L81.81,285.21L81.82,281L82.4,117.32L82.66,130.23L82.67,138.22L82.89,120.87L83.27,276.53L83.36,175.68L83.37,167.43L83.5,269.73L83.88,118L83.98,263.52L83.99,268.26L84.23,272.54L84.61,108.45L84.68,205.07L84.69,225.19L84.73,263.11L85.35,105.86L85.36,110.02L85.46,253.3L85.83,81.44L86.01,157.49L86.02,138.4L86.08,87.74L86.68,263.24L86.69,268.39L86.7,270.58L86.79,126.91L86.8,117.23L86.93,247.41L87.06,55.71L87.39,215.91L87.4,228.09L87.42,235.78L87.55,66.17L87.76,86.3L87.77,77.49L87.79,70.97L88.17,247.21L88.34,162.18L88.35,184.86L88.41,252.29L88.77,56.46L89.13,244.22L89.14,242.85L89.26,80.09L89.37,245.05L89.83,215.92L89.84,231.19L90.13,265.41L90.48,128.79L90.52,144.49L90.53,153.52L90.6,243.06L90.97,50.46L91.18,79.24L91.19,65.83L91.22,52.38L91.6,239.6L91.77,170.5L91.78,192.73L91.84,255.94L92.44,52.54L92.47,76.74L92.48,89.39L92.69,44.36L93.29,236.56L93.3,240.58L93.31,240.91L93.33,221.71L93.34,201.2L93.55,252.39L93.9,47.62L94.15,50.14L94.16,49.06L94.27,224.52L94.62,34.63L94.64,29.12L94.65,28.32L94.69,65.74L94.7,87.93L94.89,25.99L95.27,228.1L95.49,208.44L95.5,207.45L95.61,22.55L95.74,208.86L96.19,142.33L96.2,165.6L96.35,42.72L96.98,240.81L96.99,239.32L97.83,45.56L97.84,49.47L97.85,59.38L98.07,48.05L98.44,230.4L98.57,87.68L98.58,96.37L98.69,246.16L99.05,67.68L99.26,68.51L99.28,60.05L99.41,214.15L99.77,24.52L99.86,137.34L99.87,160.65L100.02,38.36L100.41,234.42L100.64,222.11L100.65,209.61L101.25,54.06L101.37,223.95L101.38,220.4L101.39,207.21L101.5,60.55L102.09,240.92L102.1,248.06L102.34,252.72L102.45,114.06L102.46,104.67L102.59,249.96L102.97,72.44L103.05,200.75L103.06,217.01L103.21,61.6L103.58,242.86L103.72,116.07L103.73,124.89L103.83,250.46L104.19,61.25L104.4,83.29L104.41,73.86L104.44,65.63L104.55,233.61L104.75,185.62L104.76,206.41L104.92,104.18L105.55,280.25L105.56,278.32L106.39,64.7L106.43,103.44L106.44,128.45L106.64,63.74L107.23,252.86L107.24,260.17L107.37,140.18L107.48,269.38L107.58,141.71L107.59,131.85L107.73,262.29L108.1,105.8L108.21,259.14L108.22,262.53L108.35,117.99L108.72,266.93L108.9,206.11L108.91,224.92L108.96,271.51L109.33,90.52L109.57,91.5L109.59,97.85L110.18,260.39L110.28,123.47L110.29,116.37L110.3,112.05L110.66,272.27L110.67,277.75L110.68,280.05L110.8,165.16L110.99,183.13L111,174.89L111.4,279.7L111.53,155.85L111.6,242L111.61,257.65L111.78,174.68L112.39,298.67L112.4,296.73L113,171.35L113.1,277.09L113.11,278.97L113.25,162.63L113.81,253.67L113.82,268.18L114.1,304.14L114.49,195.4L114.58,289.3L114.59,282.92L114.98,189.34L115.32,286.27L115.36,237.21L115.37,229.88L115.82,294.15L115.96,193.84L116.03,280.34L116.04,285.31L116.05,285.74L116.07,260.28L116.08,240.54L116.18,153.88L116.78,278.3L116.86,202.93L116.87,195.79L116.91,182.14L117.27,296.55L117.48,274.3L117.49,285.69L117.52,300.54L117.92,200.27L118.13,210.3L118.14,207.55L118.24,285.41L118.65,190.9L118.71,271.19L118.72,280.95L118.88,200.81L119.24,301.91L119.34,223.49L119.35,218.65L119.61,197.62L119.72,300.61L119.93,269.9L119.94,283.46L120.12,206.95L120.7,304.74L120.71,302.91L120.72,297.63L120.95,311.9L121.35,201.22L121.54,223.62L121.55,223.1L121.6,203.19L121.62,219.36L121.63,235.99L121.69,286.8L121.84,201.74L122.41,285.31L122.42,285.25L123.07,199.21L123.14,277.99L123.15,280.7L123.31,202.21L123.39,281.61L123.63,278.92L123.64,281.58L123.8,202.67L124.13,285.72L124.33,246.46L124.34,255.68L124.37,270.57L124.78,184.15L125,200.73L125.01,191.71L125.02,189.1L125.36,286.17L125.51,255.5L125.52,255.66L125.6,296.09L126,224.01L126.2,246.11L126.21,245.06L126.49,187.6L126.82,277.27L127,199.78L127.01,214.42L127.06,267.35L127.24,184.89L127.78,254.06L127.79,262.02L127.81,267.85L128.21,169.71L128.37,189.22L128.38,191.7L128.53,248.56L128.71,162.81L128.91,173.78L128.92,158.41L128.95,139.84L129.52,229.2L129.62,212.77L129.63,213.41L129.76,255.05L130.42,148.52L130.44,169.43L130.45,186.86L130.66,123.19L131.23,235.71L131.25,233.25L131.64,119.49L132.05,183.7L132.06,191.13L132.13,167.05L132.7,269.54L132.86,219.88L132.87,221.49L133.19,280.45L133.35,203.75L133.56,214.66L133.57,205.09L133.67,262.33L134.34,181.22L134.35,186.5L134.91,275.07L135.16,259.03L135.17,240.75L135.39,246.24L135.95,133.75L135.96,135.89L135.97,139.4L136.04,120.93L136.61,183.55L136.65,126.85L136.66,120.27L137.34,263.24L137.5,187.24L137.51,182.86L137.55,221.4L137.56,234.88L137.75,182.88L138.32,259.52L138.33,258.02L138.34,251.35L138.49,181.32L138.81,262.17L139.12,200.15L139.13,200.16L139.22,190.76L139.8,284.36L139.9,235.22L139.91,235.58L140.04,276.15L140.45,184.14L140.51,252.63L140.53,255.22L140.77,258.28L141.08,168.81L141.22,204.13L141.23,216.18L141.74,243.16L141.8,167.69L142,234.23L142.01,224.18L142.24,255.22L142.66,173.07L142.77,200.76L142.78,192.07L142.9,187.08L143.23,250.64L143.42,230.95L143.43,245.01L143.95,273.39L144.11,183.39L144.12,184.34L144.37,163.35L144.94,285.56L144.97,273.25L144.98,262.83L145.18,272.07L145.35,187.32L145.77,209.06L145.78,212.1L145.96,182.24L146.65,289.85L146.7,260L146.72,256.07L146.89,287.37L147.05,206.78L147.35,263.21L147.36,273.19L147.62,284.76L147.79,207.53L148.02,217.55L148.03,215.43L148.12,281.33L148.5,242.81L148.51,229.74L148.76,192.91L148.85,280.92L149.27,208.03L149.28,222.47L149.34,271.94L149.51,193.91L150.06,258.75L150.07,261L150.08,261.2L150.1,252.71L150.11,246.56L150.49,200.49L150.56,289.55L150.79,287.29L150.8,289.87L151.21,220.99L151.29,290.99L151.3,290.37L152.09,183.49L152.13,195.96L152.14,198.24L152.19,177.96L152.23,219.66L152.24,232.76L152.26,243.8L152.57,163.91L152.93,190.18L152.94,190.43L153.05,189.32L153.5,279.11L153.75,259.29L153.76,237.02L153.99,278.41L154.39,193.93L154.52,205.01L154.53,203.36L154.68,247.58L154.69,258.75L154.79,213.87L155.21,297.72L155.46,281.84L155.47,262.95L155.7,286.81L156.11,200.52L156.26,217.78L156.27,217.16L156.35,207.54L156.43,282.84L156.64,257.79L156.65,270.41L156.92,291.42L157.33,208.66L157.34,213.08L157.41,286.29L157.58,201.49L158.13,274.57L158.14,278.65L158.21,219.17L158.37,275.39L158.38,279.27L158.56,242.84L158.64,293.38L158.76,252.08L158.77,247.59L158.87,296.07L159.04,209.94L159.36,291.07L159.37,291.84L159.75,205.24L159.86,295.02L160.08,290.22L160.09,297.42L160.24,225.39L160.36,303.72L160.64,248.21L160.65,236.59L160.84,291.76L161.45,185.81L161.46,184.65L162.06,297.99L162.19,253.69L162.2,248.84L162.3,297.69L162.93,190.2L162.98,216.96L162.99,235.85L163.04,288.1L163.42,177.35L163.75,264.04L163.76,275.6L163.79,290.51L164.4,188.24L164.41,188.76L164.42,191.81L164.51,285.43L164.6,206.06L164.61,201.77L164.64,191.81L165,286.06L165.2,263.05L165.21,276.43L165.5,300.8L165.87,198.84L165.88,198.86L165.98,287.42L166.11,187.49L166.33,189.59L166.34,185.41L166.36,179.48L166.47,283.81L166.91,239.75L166.92,255.85L167.21,299.15L167.58,156.87L167.61,170.5L167.62,178L167.69,280.4L168.3,117.03L168.34,144.11L168.35,151.92L168.55,134.42L168.93,288.93L169.16,286.63L169.17,279.82L169.29,176.14L169.89,285.52L169.96,219.4L169.97,212.92L170.14,281.71L170.27,165.67L170.61,269.04L170.62,277.85L170.88,291.29L171.01,177.05L171.19,189.69L171.2,179.09L171.36,274.41L171.5,143.52L171.85,271.83L171.86,268.2L171.99,141.34L172.36,281.03L172.58,265.74L172.59,268.37L172.72,143.03L173.08,273.13L173.28,232.52L173.29,250.49L173.57,275.97L173.7,136.89L173.96,145.17L173.97,155.59L174.08,273.62L174.43,74.35L174.62,124.68L174.63,108.04L174.67,74.99L175.03,243.98L175.27,240.2L175.28,245.31L175.38,104.8L175.39,95.37L175.41,86.39L175.79,251.68L175.97,191.18L175.98,210.05L176.26,241.45L176.64,82.84L176.65,86.17L176.88,76.79L177.26,242.82L177.37,128.67L177.38,130.04L177.5,266.8L177.86,116.15L178.06,145.53L178.07,135.32L178.22,260.74L178.59,90.01L178.69,219.23L178.7,230.58L178.84,85.83L179.22,259.83L179.28,157.41L179.29,140.74L179.7,254.4L180.06,60.17L180.08,73.19L180.09,86.89L180.31,58.46L180.93,258.63L180.94,255.16L181.78,42.77L181.8,54.2L181.81,66.06L182.01,49.41L182.64,251.81L182.65,249.77L182.66,236.44L183.49,25.2L183.5,28.75L183.51,39.09L183.73,21.75L184.34,227.29L184.36,229.68L184.47,83.17L184.57,226.16L184.58,230.13L184.82,231.54L184.96,67.88L185.04,194.32L185.05,211.72L185.07,228.81L185.2,55.83L185.67,75.14L185.68,71.19L186.07,262.67L186.37,130.2L186.38,112.59L186.54,239.36L186.67,59.63L187.15,64.73L187.16,65.69L187.78,261.59L187.89,137.83L187.9,137.13L188.38,102.07L188.5,248.72L188.57,158.88L188.58,142.27L188.87,78.47L189.24,245.11L189.34,122.21L189.35,115.67L189.36,113.12L189.49,257.36L189.69,219.57L189.7,233.57L189.72,245.15L190.1,78.01L190.29,108.83L190.3,92.48L190.34,61.88L190.94,236.37L190.95,239.51L190.99,200.33L191,176.83L191.21,249.89L191.8,53.69L191.81,51.87L192.41,255.22L192.49,161.64L192.5,150.34L192.54,127.19L192.92,270.65L193.13,250.55L193.14,258.7L193.15,261.61L193.28,130.9L193.49,144.78L193.5,136.92L193.64,258.04L194.01,110.73L194.09,228.98L194.1,244.4L194.26,135.34L194.62,275.17L194.74,151.28L194.75,145.41L194.79,172.66L194.8,189.88L195.23,111.87L195.59,274.88L195.6,270.35L195.73,157.84L196.33,289.44L196.34,291.19L196.4,251.8L196.41,241.44L196.57,293.18L197.19,146.69L197.23,165.67L197.25,184.58L197.68,119.54L198.04,272.06L198.05,274.27L198.12,189.45L198.13,173.64L198.29,267.36L198.91,94.19L198.93,107.98L198.94,116.17L199.14,94.02L199.76,273.6L199.77,272.13L200.12,97.18L200.22,246.55L200.23,254.66L200.24,257.49L200.37,103.4L200.57,148.56L200.58,134.07L200.61,111.44L200.98,275.22L201.2,275.18L201.21,282.54L201.35,203.88L201.48,296.61L201.78,207.86L201.79,200.3L202.33,166.19L202.44,276.62L202.45,278.17L202.81,156.92L203.15,253.55L203.16,264.61L203.19,278.12L203.56,136.59L203.77,162.24L203.78,159.02L203.79,158.28L203.85,197.11L203.86,219.54L204.05,172.05L204.4,279.81L204.64,276.37L204.65,280.14L204.78,189.01L204.9,285.73L205.11,274.14L205.12,282.75L205.14,288.84L205.29,197.03L205.73,215.42L205.74,211.23L205.87,287.47L206.03,196.27L206.34,281.11L206.35,287.56L206.52,212.57L206.62,295.16L206.88,245.55L206.89,234.35L207,189.16L207.1,284L207.58,282.22L207.59,281.78L207.74,203.22L208.08,284.51L208.3,278.08L208.31,281.8L208.32,283.14L208.48,221.3L208.6,228.05L208.61,216.73L208.73,204.26L208.8,288.93L209.25,257.01L209.26,272.21L209.45,214.18L210.02,316.57L210.03,305.06L210.04,305.69L210.24,319.96L210.69,182.45L210.96,216.22L210.97,231.96L211.01,265.79L211.18,193.2L211.74,265.54L211.75,269.28L211.99,275.77L212.06,205.73L212.08,206.82L212.09,207.45L212.15,187.36L212.21,246.2L212.22,256.84L212.4,190.72L212.73,267.86L212.87,200.06L212.88,192.56L212.89,190.74L213.2,265.03L213.21,269.25L213.37,220.8L213.47,281.62L213.6,225.85L213.61,213.56L213.87,188.44L214.19,267.57L214.37,196.23L214.38,203.69L215.18,282.42L215.19,280.17L215.2,273.92L215.83,192.2L216.01,218.81L216.02,219.52L216.03,219.82L216.05,206.86L216.06,197.69L216.07,194.36L216.4,269.96L216.62,257.57L216.63,264.16L216.9,277.24L217.2,207L217.25,213.65L217.26,209.05L217.29,194.37L217.34,245.76L217.35,259.08L217.38,271.23L217.78,162.06L217.91,184.42L217.92,176.41L218.04,150.56L218.11,220.47L218.56,197.61L218.57,207.54L219.09,237.86L219.25,154.23L219.26,151.88L219.38,146.08L219.82,225.79L219.97,170.47L219.98,160.65L219.99,158.06L220.32,242.37L220.51,208.25L220.52,223.14L220.72,176.51L221.05,264.4L221.28,247.86L221.29,251.19L221.46,175.92L221.55,253.35L221.76,246.37L221.77,254.48L221.79,261.04L222.34,200.12L222.41,211.16L222.42,200.55L222.52,233.45L222.92,127.72L223.21,167.2L223.22,181L223.5,214.31L223.9,127.65L223.91,128.1L223.92,134.21L223.98,164.3L224.4,84.29L224.63,118.32L224.64,109.6L224.72,160.17L225.01,96.23L225.18,145.97L225.19,153.32L225.27,123.97L225.94,233.55L225.98,180.65L225.99,173.67L226.1,172.63L226.43,258.21L226.57,197.7L226.58,189.27L226.68,249.31L227.23,147.68L227.37,170.9L227.38,178.79L227.41,187.92L227.96,104.76L228.03,142.26L228.04,130.45L228.2,90.95L228.63,224.16L228.73,217.09L228.74,225.03L229.12,268.76L229.42,188.53L229.43,185.14L229.61,237.03L229.66,166.7L229.89,180.99L229.9,157.98L229.91,152.49L230.36,257.58L230.52,220.21L230.53,225.48L230.6,271.5L231.14,154.77L231.22,180.25L231.23,165.17L231.38,146.98L231.57,239.92L231.98,159.16L231.99,157.62L232.32,249.03L232.7,168.39L232.71,159.69L232.72,158.89L232.76,209.44L232.77,218.26L233.04,234.74L233.33,156.6L233.44,178.92L233.45,168.9L233.46,166.28L233.78,256.88L233.98,226.5L233.99,237.62L234.03,257.69L234.44,163.12L234.67,174.62L234.68,174.23L235.24,278.47L235.51,262.6L235.52,255.63L235.98,269.35L236.14,191.06L236.31,201.49L236.32,205.75L236.39,189.25L236.47,262.26L236.52,204.35L236.53,197.01L236.63,179.51L236.96,256.96L237.16,229.44L237.17,243.7L237.45,274.6L237.86,198.04L237.93,259.06L237.94,256.9L238.42,273.05L238.6,199.25L238.66,261.27L238.67,263.47L238.73,200.39L239.16,269L239.26,247.71L239.27,250.62L239.58,194.27L239.65,272.18L239.8,222.79L239.81,215.42L239.89,270.53L240.31,183.75L240.57,212.03L240.58,221.53L240.87,279.01L241.18,187.24L241.33,235.81L241.34,241.24L241.35,243.21L241.65,177.38L241.87,206.12L241.88,186.06L241.89,180.77L242.34,266.3L242.52,234.18L242.53,244.82L242.58,277.59L243.23,198.61L243.24,193.73L243.31,254.65L243.38,187.38L243.85,196.28L243.86,197.35L244.3,270.08L244.61,202.54L244.62,204.83L244.71,194.87L245.28,280.78L245.34,220L245.35,219.99L245.44,214.13L245.5,278.03L245.51,282.9L245.52,283.76L245.59,227.21L245.67,235.32L245.68,230.86L245.71,247.62L245.73,260.31L246.01,289.82L246.41,200.44L246.42,196.39L246.73,270.94L247.04,205.33L247.05,207.09L247.48,270.8L247.86,236.96L247.87,232.94L248.13,196.21L248.45,267.48L248.63,211.52L248.64,222.86L249.08,210.51L249.19,288.88L249.42,280.07L249.43,285L249.44,287.49L249.85,202.87L249.86,203.54L250.41,278.85L250.66,270.29L250.67,261.4L250.71,218.7L251.38,293.15L251.4,291.7L251.41,282.62L251.64,291.34L251.8,206.73L252.18,234.14L252.19,231.62L252.29,216.06L252.37,288.66L252.58,265.37L252.59,277.49L252.86,297.11L253.25,210.57L253.26,212.21L253.27,210.94L253.35,286.85L253.49,201.58L253.67,211.17L253.68,204.15L253.98,169.24L254.32,284.14L254.33,289.05L254.34,289.95L254.41,232.7L254.42,227.01L254.59,298.87L254.96,166.47L255.05,274.71L255.06,282.15L255.07,284.63L255.2,160.95L255.4,185.08L255.41,174.26L255.56,278.94L255.69,153.23L256.02,266.5L256.04,275.45L256.18,179.1L256.3,288.67L256.6,199.1L256.61,185.61L256.9,139.66L257.27,273.65L257.38,159.57L257.39,154.89L257.4,153.76L257.46,211.33L257.47,231.44L257.64,163.28L258.02,285.01L258.24,281.09L258.25,282.58L258.87,130.3L258.96,256.74L258.97,265.82L258.98,268.94L259.11,121.48L259.32,142.01L259.33,133.12L259.36,124.96L259.74,273.99L259.91,201.64L259.92,221.14L259.97,272.1L260.34,92.56L260.66,218.6L260.68,236.6L261.07,95.63L261.2,255.6L261.31,125.66L261.32,123.35L261.67,269.34L261.75,180.05L261.76,167.78L261.92,265.04L262.54,103.04L262.55,106.71L262.56,115.79L262.79,101.92L263.16,267.27L263.29,142.85L263.3,147.39L263.39,257.48L263.76,110.23L263.95,155.09L263.96,139.1L264.25,84.93L264.62,251.03L264.72,114.84L264.73,109.24L264.88,255.53L264.99,97.12L265.08,217.92L265.09,227.95L265.23,52.71L265.59,236.76L265.65,159.04L265.66,141L265.72,89.61L266.33,252.09L266.35,252.04L266.59,258.24L266.95,89.62L267.03,212.86L267.04,229.03L267.06,243.88L267.44,81.23L267.64,90.99L267.65,79.56L267.79,227.76L267.93,44.82L268.24,167.06L268.25,234.82L268.3,282.76L268.66,67.24L268.89,70L268.9,70.74L269.04,245.2L269.57,166.81L269.58,147.9L270.02,281L270.37,83.24L270.38,84L270.49,244.39L270.62,62.97L271.06,117.29L271.07,99.47L271.35,66.83L271.48,243.33L271.71,242.03L271.72,246.56L271.73,248.8L271.82,105.68L271.83,96.58L271.95,220.63L272.09,32.99L272.41,186.44L272.42,204.73L272.69,229.88L272.82,55.18L273.06,69.48L273.07,68.05L273.44,247.55L273.73,153.51L273.74,132.64L273.91,220.92L274.29,44.25L274.53,46.08L274.54,50.59L275.16,249.95L275.29,108.99L275.3,117.98L275.38,236.52L275.51,87.37L275.97,95.12L275.98,84.18L276.11,228.84L276.49,62.54L276.57,192.3L276.58,209.07L276.87,237.93L277.2,45.46L277.21,35.68L277.23,27.41L277.58,214.34L277.78,130.61L277.79,158.31L277.96,37.5L278.57,246.27L278.58,246.51L278.67,106.25L278.68,99.73L278.81,236.4L279.18,63.54L279.25,150.1L279.26,176.36L279.3,227.86L279.67,42.47L280.03,223.93L280.04,226.82L280.16,84.69L280.24,205.43L280.25,220.72L280.3,244.01L280.65,83.33L280.88,96.18L280.89,88.96L280.9,86.93L280.98,206.46L280.99,221.45L281.14,88.53L281.5,250.83L281.62,105.72L281.63,103.9L282.01,253.29L282.12,84.34L282.28,156.61L282.29,133.21L282.37,38.31L282.48,234.65L283.04,130.77L283.05,114.17L283.1,71.27L283.7,247.35L283.71,251.54L283.74,240.28L283.75,220.78L283.96,245.29L284.32,54.87L284.57,58.1L284.58,63.93L285.43,270.91L285.46,260.43L285.47,246.52L285.66,269.16L286.28,111.01L286.3,120.08L286.31,126.63L286.77,99.58L286.89,254.01L287.03,119.81L287.04,129.04L287.14,261.47L287.51,80.08L287.7,119.87L287.71,105.89L287.75,81.63L288.11,247.24L288.33,230.14L288.34,239L288.47,121.75L288.85,283.34L288.95,193.71L288.96,187.61L289.09,274.28L289.46,131.21L289.57,256.01L289.58,258.37L289.7,145.39L290.06,273.07L290.27,241.68L290.28,257.68L290.56,286.44L290.91,147.93L290.92,143.07L290.93,141.7L291,228.27L291.01,245.15L291.04,266.04L291.42,118.24L291.66,133.56L291.67,135.18L292.28,277.18L292.36,184.94L292.37,176.37L292.51,267.15L292.63,142.3L292.97,241.63L292.98,252.67L293.12,159.8L293.74,289.34L293.76,283.59L293.77,275.82L293.98,293L294.38,190.12L294.59,203.99L294.6,202.73L294.62,195.51L294.96,278.18L295.15,239.9L295.16,253.86L295.36,211.08L295.69,287.96L295.93,279.62L295.94,277.32L296.17,279.66L296.58,204.99L296.66,275.32L296.67,274.48L296.84,202.78L297.16,284.08L297.38,276.96L297.39,284.36L297.41,291.16L297.81,201.76L298.01,232.54L298.02,230.72L298.06,219.79L298.38,298.17L298.58,260.27L298.59,274.25L298.69,215.44L299.12,287.65L299.31,251.42L299.32,265.5L299.36,289.65L299.77,193.8L300.03,206.77L300.04,216.39L300.1,278.08L300.5,190.8L300.82,270.97L300.83,273.47L301.24,165.52L301.31,240.9L301.32,243.48L301.73,158.46L302.01,190.69L302.02,205.18L302.11,177.94L302.55,258.82L302.8,255.36L302.81,244.42L303.04,255.33L303.2,183.41L303.56,239.09L303.57,229.36L303.93,209.97L304.27,275.15L304.28,273.41L304.92,156.21L305.19,182.16L305.2,197.91L305.29,177.1L305.98,277.87L306,270.4L306.01,262.66L306.22,269.02L306.64,158.79L306.82,188.68L306.83,192.28L306.88,149.5L307.45,228.79L307.55,195.05L307.56,194.88L307.7,228.56L308.23,144.07L308.28,188.82L308.29,195.4L308.35,151.56L308.91,246.05L308.96,186.71L308.97,182.23L309.07,180.36L309.11,217.8L309.12,231.31L309.41,258.34L309.81,175.06L309.82,173.95L310.06,170.45L310.38,251.39L310.53,181.02L310.54,178.36L310.61,251.32L310.62,254.5L310.66,207.65L310.67,195.13L310.79,186.23L310.88,247L311.33,235.73L311.34,244.42L311.85,262.33L311.99,203.15L312,192.71L312.01,189.62L312.34,262.01L312.56,245.11L312.57,251.93L312.75,195.29L313.08,261.32L313.2,211.18L313.21,204.74L313.33,267.92L313.72,164.54L313.99,181L314,193.68L314.11,183.24L314.78,263.25L314.79,260.35L314.8,248.92L315.03,263.62L315.57,158.02L315.58,160.06L315.59,164.9L315.81,153.95L316.26,239.96L316.38,204.7L316.39,201.27L316.5,231.41L316.66,148.75L317.16,165.26L317.17,172.95L317.28,167.82L317.73,250.39L317.96,231.85L317.97,233.61L318.02,200.44L318.03,189.92L318.27,123.72L318.68,218.58L318.69,224.63L318.95,230.82L319.01,164.12L319.1,173.46L319.11,164.05L319.24,141.86L319.66,220.3L319.67,223.91L319.91,229.14L319.98,155.52L320.08,169.51L320.09,159.85L320.17,213.23L320.71,111.49L320.85,156.35L320.86,171.76L320.95,150.22L321.64,266.5L321.66,252.64L321.67,230.98L322.29,189.24L322.37,261.76L322.43,199.64L322.44,195.36L322.54,177.23L322.6,230.69L322.61,235.36L322.62,237.28L322.79,162.29L323.16,200.73L323.17,195.32L323.35,241.73L323.51,173.17L323.56,226.45L323.57,236.22L323.6,245.16L323.89,168.2L324.13,178.25L324.14,176.94L324.33,253.12L324.94,215.87L324.95,213.59L325.06,241.97L325.47,151.78L325.74,175.09L325.75,188.29L325.86,177.2L326.54,259.72L326.55,257.49L326.83,173.25L327.37,200.42L327.38,202.47L327.43,181.93L327.51,244.22L327.66,186.22L327.67,178.74L327.68,178.49L327.69,184.41L327.7,197.62L328.26,255.84L328.41,179.42L328.42,176.67L328.48,223.18L328.79,138.5L329.01,153.83L329.02,137.79L329.45,235L329.46,240.25L329.53,191.47L329.97,272.31L330.1,230.99L330.11,224.88L330.19,270.93L330.5,202.91L330.87,215.77L330.88,225.86L331.17,277.25L331.24,212.77L331.66,268.84L331.67,268.36L332.2,194.75L332.38,256.37L332.39,261.01L332.4,261.82L332.44,206.85L332.45,200.91L332.64,272.55L333.29,251.09L333.3,243.56L333.62,290.28L333.79,209.48L333.84,265.65L333.85,272.42L333.86,274.83L334.16,208.72L334.38,239.01L334.39,220.58L334.4,216.2L334.85,290.89L335.04,250.51L335.05,260.08L335.1,289.54L335.39,201.54L335.75,215.9L335.76,216.05L335.87,214.18L336.57,286.19L336.58,284.43L337.05,297.74L337.22,205.44L337.29,290.58L337.3,290.94L337.71,202.21L338.03,283.41L338.04,284.13L338.14,221.47L338.52,293.15L338.74,277.61L338.75,284.53L338.93,217.24L339.25,289.69L339.32,232.76L339.33,231.04L339.5,289.01L339.64,211.79L339.73,282.83L339.74,288.07L339.83,232.16L339.99,295.26L340.15,249.52L340.16,245.82L340.17,245.37L340.2,275.29L340.21,286.02L340.47,302.58L340.85,211.25L340.86,207.91L340.97,291.31L341.11,204.37L341.29,226.9L341.3,222.9L341.38,202.63L341.71,293.96L341.92,280.1L341.93,289.48L341.96,299.71L342.34,197.51L342.53,200.03L342.54,194.91L342.57,187.25L342.93,281.72L343.12,234.91L343.13,252.86L343.3,199.75L343.67,297.5L343.91,296.07L343.92,288.95L344.29,183.01L344.72,201.8L344.74,205.45L344.76,192.64L345.39,296.96L345.44,258.58L345.45,253.05L345.62,291.09L346.25,188.67L346.29,198.81L346.3,212.72L346.36,284.68L346.73,167.92L347.08,282.65L347.09,287.24L347.11,290.23L347.23,182.48L347.39,212.34L347.4,198.73L347.83,276.34L348.19,145.64L348.2,144.47L348.45,143.5L348.82,282.82L348.88,210.44L348.89,195.92L349.06,280.66L349.43,125.88L349.68,137.24L349.69,146.09L350.16,132.1L350.28,274.06L350.39,153.37L350.41,151.69L350.54,282.24L350.85,161L350.86,152.51L351.01,268.15L351.38,123.15L351.47,228.75L351.48,243.06L351.63,124.92L352.25,276.31L352.26,273.59L352.27,262.81L352.61,135.58L352.96,268.54L353.09,152.12L353.1,148.45L353.17,226.8L353.18,245.53L353.34,156.47L353.71,277.16L353.95,275.69L353.96,277.34L354.57,116.22L354.65,222.98L354.66,237.61L354.68,252.46L354.81,107.45L355.28,120.3L355.29,116.47L355.3,115.43L355.36,185.89L355.37,206.4L355.68,268.82L356.03,105.18L356.06,123.15L356.08,134.87L356.15,250.5L356.77,71.42L356.8,99.51L356.81,112.47L357,69.84L357.39,254.06L357.61,246.7L357.63,244.66L357.99,54.66L358.32,200.88L358.33,217.68L358.37,242.09L358.73,75.93L358.98,100.28L358.99,110.24L359.1,250.43L359.46,80.07L359.67,83.55L359.69,72.37L359.82,222.81L359.95,43.4L360.28,190.65L360.29,207.4L360.44,57.04L360.82,241.8L360.93,77.9L360.94,77.49L361.04,228.83L361.42,34.79L361.59,118.7L361.6,94.78L362.15,27.16L362.29,209.34L362.3,204.09L362.4,53.39L363,232.69L363.01,230.27L363.02,222.22L363.49,247.39L363.62,82.43L363.73,243.06L363.74,241.57L363.99,245.48L364.37,68.84L364.44,190.54L364.45,207.48L364.6,44.71L364.96,225.05L365.07,66.28L365.08,62.25L365.14,126.8L365.15,152.12L365.33,64.97L365.7,240.7L365.93,232.11L365.94,240.47L365.96,246.53L366.28,71.45L366.29,60.37L366.43,223.95L366.56,48.06L366.86,143.06L366.87,168.48L367.05,55.02L367.65,242.52L367.66,246.86L367.67,248.36L367.73,154.78L367.74,137.34L367.89,233.28L368.03,47.08L368.53,57.16L368.54,66.83L368.76,60.03L369.13,234.33L369.25,83.23L369.26,85.04L369.38,239.8L369.74,37.35L369.93,91.87L369.94,74.51L370.1,221.17L370.23,42.01L370.57,212.12L370.58,222.12L370.72,105.03L371.09,261.94L371.19,157.42L371.2,149.5L371.32,248.49L371.94,87.2L371.97,109.11L371.98,123.47L372.19,78.18L372.55,258.7L372.78,253.82L372.79,260.55L372.81,264.65L372.92,129.26L373.14,129.51L373.15,117.19L373.28,248.63L373.66,61.29L373.92,95.83L373.93,104.65L374.15,96.15L374.52,263.92L374.75,253.29L374.76,248.61L375.37,64.37L375.61,75.97L375.62,80.99L376.23,264.81L376.33,129.96L376.34,118.74L376.46,253.08L376.59,81.59L376.91,207.72L376.92,225.8L377.08,111.52L377.69,267.19L377.7,263.78L377.94,273.57L378.3,108.67L378.38,208.88L378.39,232.87L378.66,266.24L378.8,113.45L379.15,262.93L379.16,258.67L379.65,268.38L380.01,113.99L380.02,112.33L380.13,252.33L380.5,101.39L380.51,101.58L381.37,286.9L381.39,280.22L381.4,271.54L381.75,181.34L382.09,283.59L382.21,189.36L382.22,186.48L382.24,186.21L382.25,189.18L382.26,198.79L382.47,178.5L383.06,295.83L383.07,298.01L383.23,227.46L383.28,282.87L383.29,290.44L383.3,292.81L383.47,198.96L383.66,205.13L383.67,202.16L383.71,191.13L384.04,284.29L384.24,246.82L384.25,260.68L384.78,293.57L384.93,212.76L385.02,287.38L385.03,287.45L385.18,198.08L385.74,276.49L385.75,280.34L385.78,253.04L385.79,234.58L385.91,200.79L386.47,286.29L386.48,290.9L386.49,293.2L386.87,210.64L386.88,207.3L386.97,279.52L387.55,190.35L387.64,198.95L387.65,201.17L387.77,193.58L388.42,286.17L388.45,270.72L388.46,266.72L388.7,273.01L389.11,195.52L389.19,270.45L389.2,268.88L389.6,186.34L389.92,266.05L389.93,266.15L390.17,274.35L390.57,141.26L390.86,192.69L390.87,206.45L391.06,170.64L391.64,253.64L391.66,250.78L391.67,244.17L391.88,263.54L392.04,190.91L392.45,212.78L392.46,215.67L392.53,195.64L392.86,263.54L393.16,224.71L393.17,222.23L393.23,230.31L393.25,221.07L393.26,215.35L393.36,263.9L393.76,196.64L393.81,240.16L393.82,247.53L394,198L394.57,271.9L394.59,265.95L394.6,256.77L395.07,273.44L395.37,182.49L395.41,193.38L395.42,196.12L395.47,166.9L395.8,238L395.84,184.63L395.85,179.43L396.53,252L396.66,227L396.67,216.1L397.02,267.12L397.43,165.95L397.45,174.29L397.46,186.83L397.67,153.72L398.25,253.62L398.26,251.46L398.5,252.73L398.9,165.61L399.09,183.09L399.1,184.77L399.22,211.6L399.52,134.05L399.79,177.11L399.8,186.53L399.87,172.28L400.45,249.89L400.58,218.83L400.59,210.08L400.61,198.86L401.18,272.48L401.34,206.12L401.35,207.19L401.92,275.42L402.08,214.97L402.09,215.46L402.16,269.42L402.32,193.3L402.81,208.93L402.82,208.79L403.06,192.24L403.39,265.61L403.54,213.34L403.55,211.61L403.56,211.2L403.6,237.37L403.61,244.04L403.63,250.92L403.92,176.28L404.26,200.36L404.27,188.29L404.41,165.22L404.86,255.58L405,201.7L405.01,201.09L405.11,268.17L405.62,229.24L405.63,207.95L405.75,183.8L406.07,261.93L406.33,259.01L406.34,251.8L406.48,172.62L407.11,206.55L407.13,204.7L407.18,217L407.47,145.22L407.57,161.76L407.58,141.45L407.84,135.29L408.03,223.37L408.23,198.3L408.24,212.95L408.34,184.55L409.01,254.15L409.02,252.42L409.03,240.71L409.26,242.92L409.66,171.36L409.81,173.79L409.82,177.96L409.92,174.79L410.48,251.56L410.64,227.27L410.65,226.76L410.97,265.11L411.14,188.37L411.24,223.67L411.26,203.65L411.46,241.01L411.77,173.22L412.01,195.13L412.02,198.77L412.44,256.91L412.6,182.58L412.74,190.73L412.75,188.84L412.93,249.64L413.24,177.46L413.32,187.53L413.33,178.29L413.47,154.3L413.92,251.08L414.01,233.99L414.02,237L414.32,193.25L414.4,259.34L414.54,202.32L414.55,194.45L414.64,251.7L415.18,147.68L415.31,175.67L415.32,183.52L415.86,263.71L416.13,251.08L416.14,231.91L416.35,255.48L416.65,166.22L416.91,185.74L416.93,195.71L417.02,195.06L417.58,266.33L417.71,224.16L417.72,219.36L417.82,273.78L418.49,200.62L418.5,205.61L418.62,204.77L419.28,276.09L419.29,273.43L419.3,263.82L419.53,281.73L419.94,211.26L420.06,234.9L420.07,226.09L420.19,209.89L420.27,278.48L420.73,264.03L420.74,271.39L420.76,278.25L421.17,205.45L421.37,216.66L421.38,216.1L421.41,212L421.43,225.6L421.44,238.49L421.84,207.91L421.98,281.66L422.22,281.19L422.23,282.89L422.64,228.85L422.7,278.83L422.71,282.46L422.74,263.97L422.75,248.74L422.81,209.63L423.45,280.22L423.51,234.11L423.52,231.22L423.6,216.13L423.95,291.28L424.13,258.27L424.15,272.03L424.2,301.23L424.59,225.24L424.9,279.4L424.91,282.99L425.08,234.68L425.15,284.81L425.22,243.58L425.23,242.88L425.33,236.65L425.36,258.95L425.37,270.02L425.57,237.96L426.14,302.48L426.15,297.62L426.16,287.06L426.39,299.47L426.77,208.04L426.95,236.7L426.96,229.84L427.07,154.2L427.37,293.69L427.57,280.73L427.58,289.15L427.61,300.9L427.95,229.24L428.24,236.3L428.25,235.76L428.26,231.92L428.83,284.52L428.98,240.51L428.99,240.97L429,238.65L429.33,296.11L429.53,279.69L429.54,289.37L429.57,299.57L429.96,228.2L430.2,232.88L430.21,231.89L430.55,295.43L430.69,224.73L430.77,291.26L430.78,297.6L430.96,237.71L431.05,305.04L431.37,242.4L431.38,239.42L431.67,215.18L431.77,295.84L431.98,269.48L431.99,281.56L432.16,224.48L432.76,308.37L432.77,308.56L433.14,194.73L433.21,271.3L433.22,281.48L433.38,205.4L433.49,291.92L433.88,224.34L433.89,223.49L434.47,295.17L434.58,267.78L434.59,264.09L434.7,300.18L434.85,219.89L435.38,236.94L435.39,250.21L435.82,204.69L435.95,299.96L436.17,297.78L436.18,302.54L436.2,305.34L436.32,210.97L436.5,221.13L436.51,214L436.56,200.57L436.67,293.43L437.11,243.93L437.12,258.77L437.53,190.3L437.89,293.87L437.9,296.96L438.02,202.33L438.16,298.9L438.23,220.88L438.24,213.85L438.38,290.33L439,145.93L439.04,171L439.05,186.92L439.25,152.01L439.63,299.74L439.85,291.15L439.86,288.19L440.72,100.98L440.76,136.56L440.77,155.19L440.96,110.08L441.34,278.63L441.56,266.92L441.57,265.32L441.94,97.56L442.27,227.35L442.28,242.29L442.43,115.41L443.05,292.91L443.06,291.12L443.07,282.22L443.9,132.27L443.91,132.34L443.92,137.77L444.39,114.93L444.52,269.38L444.61,135.23L444.62,129.02L444.76,270.75L445.12,91.51L445.19,193.82L445.2,214.64L445.72,252.37L445.86,96.28L445.89,119.81L445.9,132.22L446.1,96.13L446.48,257.07L446.7,241.31L446.71,239.95L446.84,77.68L447.39,162.48L447.4,186.84L447.57,65.67L447.95,254.67L448.18,254.48L448.19,258.6L448.31,84.61L448.4,221.34L448.41,232.6L448.42,238.87L448.55,64.18L448.97,141.4L448.98,116.64L449.28,38.01L449.66,233.64L449.74,89.74L449.75,77.59L449.9,245.66L450.26,45.12L450.35,206.49L450.36,218.83L450.38,226.71L450.51,48.59L450.94,109.65L450.95,91.97L451.24,47.69L451.37,231.32L451.56,156.39L451.57,178.94L451.62,230.04L451.97,39.03L452.34,218.25L452.35,211.72L452.46,59L452.83,225.45L453.05,211.89L453.06,223.97L453.33,242.39L453.44,66.69L453.64,88.24L453.65,70.13L454.04,223.61L454.17,31.8L454.28,212.54L454.29,218.59L454.33,184.67L454.34,166.71L454.42,51.41L455.04,247.33L455.05,246.96L455.06,238.15L455.4,78.27L455.76,244.41L455.89,88.61L455.9,91.48L456.38,83.36L456.51,245.7L456.6,98.35L456.61,88.33L456.76,247.2L457.1,38.6L457.2,185.58L457.21,201.61L457.23,220.33L457.36,44.45L457.83,54.65L457.84,48.73L457.85,46.57L457.93,181.23L457.94,198.43L458.09,47.96L458.48,244.01L458.71,238.56L458.72,230.83L458.83,62.02L459.18,237.45L459.4,212.45L459.41,228.06L459.43,244.61L459.81,77.63L460.03,100.26L460.04,91.84L460.18,248.98L460.54,35.86L460.61,159.59L460.62,181.23L460.79,40.55L461.14,223.92L461.28,47.7L461.29,52.19L461.9,256.73L462.14,235.85L462.15,223.55L462.37,240.6L462.99,71.67L463,76.51L463.01,87.2L463.62,267.46L463.87,263.19L463.88,256.36L464.08,256.96L464.2,111.44L464.69,135.47L464.7,135.22L465.32,274.71L465.4,192.26L465.41,181.48L465.68,139.66L466.04,272.09L466.18,152.52L466.19,155.4L466.41,154.64L466.78,284.11L466.91,208.5L466.92,208.53L467.03,295.49L467.18,208.09L467.36,208.47L467.37,203.63L467.75,282.88L467.88,177.96L467.98,271.09L467.99,277.68L468,279.94L468.14,173.38L468.33,190.21L468.34,181.27L468.37,163.96L468.74,282.52L468.97,273.19L468.98,269.69L469.11,168.58L469.71,287.15L469.72,283.84L469.85,184.24L470.45,296.37L470.46,294.15L471.08,179.99L471.16,274.9L471.17,280.89L471.18,282.65L471.29,177.65L471.3,170.82L471.31,166.34L471.42,279.66L471.86,238.2L471.87,253.17L472.17,289.63L472.54,175.82L472.64,281.66L472.65,283.55L472.89,284.37L473.02,175.6L473.34,250.37L473.35,263.36L473.88,290.44L474.02,209.08L474.11,285.19L474.12,278.92L474.36,281.27L474.76,180.68L474.92,206.17L474.93,198.15L474.98,177.05L475.34,287.74L475.56,284.17L475.57,288.52L475.59,290.58L475.89,208.4L475.9,203.09L475.98,195.21L476.32,272.97L476.5,225.69L476.51,241.14L476.64,204.32L477.29,286.75L477.3,287.73L477.5,312.85L477.7,199L477.99,248.19L478,258.88L478.43,206.32L478.77,289.98L478.78,287.59L478.79,282.07L479.02,297.33L479.41,193.75L479.68,213.84L479.69,226.85L479.75,275.15L479.9,197.35L480.46,263.5L480.47,269.87L480.73,284.38L481.03,217.36L481.07,221.25L481.08,221.52L481.13,200.38L481.15,215.19L481.16,227.37L481.21,266.95L481.62,192.21L481.93,260.18L481.94,266.8L482.1,213.82L482.45,284.95L482.57,234.8L482.58,225.93L482.68,278.1L483.09,194.4L483.34,209.11L483.35,218.05L483.66,289.69L484.13,265.38L484.14,270.89L484.16,275.05L484.55,179.54L484.56,175.26L484.64,233.73L484.8,166.48L484.92,174.58L484.93,166.75L485.62,246.74L485.76,214.92L485.77,203.99L485.87,248.17L486.27,167.06L486.55,189.13L486.56,202.26L486.65,168.15L487.34,263.07L487.36,255.65L487.37,246.3L487.59,268.92L487.98,158.27L488.17,182.87L488.18,185.01L488.31,225.61L488.47,148.15L488.77,197.15L488.78,204.48L488.86,151.22L489.53,247.45L489.56,222.85L489.57,204.2L489.95,182.91L490.28,249.52L490.29,245.79L490.93,179.39L491.07,208.42L491.08,216.33L491.65,177.45L491.74,242.77L491.79,201.72L491.8,196.26L491.9,182.4L491.96,239.61L491.97,246.43L492.13,186.92L492.48,258.37L492.61,219.1L492.62,209.07L492.73,255.8L493.02,177.95L493.39,188.5L493.4,199.82L493.45,236.5L494.1,166.4L494.15,205.36L494.16,212.46L494.19,218.58L494.73,149.97L494.81,177.81L494.82,169.02L494.98,154.88L495.41,227.77L495.52,209.46L495.53,212.99L495.65,233.84L495.71,174.54L495.88,228.93L495.89,232.73L496.07,190.1L496.38,236.91L496.42,207.18L496.43,189.49L496.68,168.7L497.12,237.3L497.18,182.54L497.19,185.98L497.28,185.66L497.36,247.62L497.98,212.2L497.99,209.71L498.1,251.93L498.75,168.74L498.77,176.85L498.78,188.34L499.13,141.37L499.57,243.73L499.58,245.26L500.35,150.41L500.4,190.81L500.41,198.04L500.6,157.39L500.79,234.95L501.17,212.98L501.18,204.5L501.28,231.7L501.58,151.68L501.95,172.53L501.96,185.31L502.02,224.1L502.67,132.48L502.68,134.77L503,194.35L503.16,133L503.48,193.91L503.49,191.5L503.78,139.03L503.97,202.36L504.2,191.57L504.21,197.09L504.22,197.51L504.25,171.44L504.26,154.19L504.28,138.9L504.93,246.64L504.94,250.4L504.95,251.29L504.99,199.61L505,188.78L505.01,185.93L505.44,257.18L505.63,213.84L505.64,225.56L505.86,199.67L506.43,278.7L506.44,278.31L506.96,187.3L507.27,227.25L507.28,230.65L507.4,257.44L507.45,201.47L507.69,205.81L507.7,200.93L508.26,258.45L508.4,231.65L508.41,210.13L508.43,192.1L509.11,280.42L509.12,278.53L509.28,220.55L509.61,285.07L509.83,276.06L509.84,286.79L509.86,291.21L510,240.93" style="vector-effect: non-scaling-stroke; fill: none; stroke: rgb(102, 194, 165); stroke-opacity: 1; stroke-width: 2px; opacity: 1;"/></g><g class="points"/><g class="text"/></g><g class="trace scatter tracea27c39" style="stroke-miterlimit: 2; opacity: 1;"><g class="fills"/><g class="errorbars"/><g class="lines"><path class="js-line" d="M0,413.25L0.16,124.4L0.76,267.84L0.78,275.48L1.04,283.34L1.15,146.84L1.32,199.19L1.33,177.96L1.4,95.98L2,252.48L2.11,110.85L2.12,106.47L2.13,105.57L2.18,158.32L2.19,181.28L2.38,102.84L2.75,266.95L2.96,232.7L2.97,240.19L2.98,245.88L3.11,68.62L3.54,150.84L3.55,135.74L3.71,256.11L4.09,86.17L4.21,248.83L4.22,248.43L4.47,254.27L4.81,53.57L4.89,166.17L4.91,188.71L5.07,76.3L5.18,242.12L5.68,235.57L5.69,227.08L5.8,76.04L6.18,253.74L6.4,233.48L6.41,231L7.03,40.36L7.11,177.84L7.12,196.72L7.27,48.26L7.89,278.45L7.91,264.85L7.92,246.68L8.12,262.74L8.25,94.47L8.73,99.58L8.74,99.12L9.35,268.64L9.42,183.9L9.43,170.5L9.61,278.21L10.21,108.65L10.22,112.98L10.23,122.38L10.32,264.13L10.94,96.24L10.95,102.86L11.32,274.26L11.64,82.44L11.65,69.84L11.68,59.42L12.03,248.69L12.22,168.9L12.23,190.4L12.66,135.02L13.02,282.58L13.03,282.96L13.39,118.97L13.49,261.93L13.5,266.19L13.63,136.49L13.75,276.68L13.98,274.73L13.99,278.18L14.37,111.5L14.48,263.04L14.49,265.75L14.57,161.33L14.58,150.29L14.75,270.79L15.1,76.5L15.2,240.01L15.22,244.52L15.59,62.54L15.68,225.54L15.69,234.75L15.83,63L16.2,257L16.27,177.12L16.28,157.43L16.46,267.69L17.06,67.04L17.08,79.92L17.09,90.24L17.31,87.02L17.92,274.66L17.93,271.91L17.94,266.54L18.16,292.19L18.77,145.62L18.79,156.09L18.8,161.91L18.89,277.7L19.26,122.17L19.49,132.46L19.5,127.17L19.51,126.72L19.54,155.81L19.55,168.29L19.88,288.86L20.24,152.78L20.35,281.58L20.36,275.58L20.6,281.25L20.73,144.32L21.07,269.49L21.08,275.55L21.22,159.67L21.59,293.27L21.67,221.39L21.68,212.65L21.82,284.47L21.98,148.57L22.48,165.22L22.49,178.53L23.3,305.26L23.31,302.48L24.16,177.09L24.2,193.86L24.21,212.36L24.4,172.61L25,301.3L25.02,302.17L25.4,169.96L25.69,232.91L25.7,253.95L25.89,178.13L26.47,293.54L26.48,291.89L26.72,294.66L27.36,200.86L27.37,201.11L27.61,195.13L27.94,289.23L28.09,208.16L28.11,211.51L28.43,305.54L28.82,211.41L28.83,203.85L28.86,226.61L28.87,246.21L29.32,201.27L29.4,291.18L29.64,288.76L29.66,288.99L29.81,217.97L30.15,307.46L30.35,273.66L30.36,307L30.55,199.92L31.12,291.62L31.13,291.36L31.28,193.32L31.62,295.58L31.84,285.87L31.85,292.78L31.87,297.62L32.27,200.79L32.41,225.14L32.42,221.35L32.51,203.98L32.56,260.75L32.57,273.75L32.74,203.33L32.85,286.45L33.23,216.03L33.24,215.86L33.82,286.52L33.89,222.55L33.9,221.65L33.94,222.85L33.96,209.86L33.97,200.63L33.98,199.48L34.04,269.52L34.05,277.73L34.47,204.03L34.55,284.16L34.59,236.56L34.6,227.14L34.71,203.7L34.79,279.56L35.26,264.04L35.27,269.55L35.29,273.69L35.69,184.3L35.81,200.61L35.82,195.24L35.94,195.13L36.52,294.46L36.66,230.33L36.67,229.36L36.76,289.38L37.14,222.41L37.15,211.95L37.24,276.28L37.41,183.26L37.7,245.51L37.71,255.03L37.73,267.7L38.15,181.53L38.39,195.18L38.4,197.92L38.96,271.95L39.12,190.23L39.21,261.48L39.22,251.53L39.36,189.96L39.93,278.72L39.97,249.99L39.98,231.76L40.1,206.25L40.43,294.82L40.66,282.58L40.67,286.03L40.83,189.46L40.9,270.02L40.91,274.33L41.06,201.26L41.07,190.95L41.16,268.26L41.82,177.92L41.83,181.15L41.84,190.89L42.55,187.42L42.63,274.97L42.64,274.77L42.65,268.65L42.79,195.27L43.37,298.4L43.38,297.33L43.62,299.82L44.26,180.81L44.28,191.74L44.29,205.87L44.5,187.39L44.85,267.36L45.07,260.13L45.08,261.35L45.49,198.88L45.78,238.24L45.79,245.9L45.81,247.41L45.85,186.8L45.86,177.27L46.1,145.71L46.3,216.44L46.49,188.92L46.5,206.27L46.71,187.91L47.29,272.25L47.3,269.68L47.57,145.45L48.19,165.81L48.2,179.31L48.31,165.47L48.76,260.36L48.99,250.93L49,251.07L49.53,127.92L49.91,163.38L49.92,178.21L49.97,226.27L50.38,156.21L50.68,206.56L50.69,209.66L51,164.41L51.19,248.44L51.23,195.46L51.24,187.1L51.32,205.16L51.35,182.9L51.36,178.49L51.44,247.99L51.61,175.54L51.71,197.2L51.72,176.05L51.73,169.75L52.29,249.75L52.37,236.28L52.38,247.65L52.66,283.92L53.07,195.43L53.15,269.94L53.16,268.48L53.69,168.44L53.95,199.13L53.96,204.24L54.36,255.28L54.66,174.86L54.67,167.02L54.85,217.22L54.91,151.55L55.08,201.06L55.09,209.24L55.16,159.54L55.6,232.26L55.85,218.81L55.86,215.61L56.25,171.41L56.33,254.19L56.55,241.06L56.56,251.85L56.58,260.31L57,189.2L57.22,213.55L57.23,209.5L57.57,293.76L57.83,254.38L57.84,234.39L58.05,275.14L58.21,191.33L58.61,205.56L58.62,209.4L58.83,166.31L59.28,270.23L59.43,236.62L59.44,234.01L59.51,287.66L59.93,201.31L60.12,220.05L60.13,220.07L60.25,258.63L60.41,189.99L60.46,242.09L60.47,251.84L60.55,202.28L60.98,278.05L61.24,274.48L61.25,263.89L61.39,215.49L61.96,298.03L62,253.99L62.01,244.73L62.12,215.43L62.46,299.51L62.68,294.2L62.69,299.56L62.92,340.49L63.1,214.25L63.27,221.94L63.28,219.63L63.35,206.61L63.43,289.84L63.87,249.04L63.88,264.23L64.08,221.47L64.16,290.48L64.63,271.5L64.64,274.58L64.7,207.39L65.13,289.98L65.14,288.77L65.31,223.12L65.39,293.75L65.86,290.03L65.87,295.18L66.05,249.25L66.12,304.76L66.29,254.21L66.3,252.48L66.36,301.51L66.53,223.45L67,234.13L67.01,230.55L67.1,297.34L67.26,223.78L67.7,258.25L67.71,258.92L67.75,243.79L67.82,289.44L67.83,293.36L68.01,242.28L68.07,296.48L68.1,265.2L68.11,245.38L68.49,210.25L68.8,287L68.81,287.47L68.98,214.66L69.53,278.36L69.54,281.96L69.78,291.14L69.89,224.2L69.9,223.97L69.96,218.31L69.97,221.15L69.98,232.24L70.03,291.09L70.2,222.45L70.76,289.22L70.77,289.4L70.87,233.39L71.26,306.9L71.48,292.59L71.49,300.44L71.5,305.43L71.91,211.04L72.09,225.81L72.1,221.55L72.16,210.5L72.49,298.42L72.7,282.06L72.71,291.93L72.99,307.26L73.33,202.06L73.34,199.03L73.46,291.65L73.6,190.81L73.68,269.01L73.69,282.72L73.95,291.09L74.09,196.38L74.32,202.74L74.33,204.96L74.7,303.69L75.02,215.66L75.04,212.96L75.1,212.81L75.11,218.36L75.12,229.95L75.31,208.98L75.67,298.4L75.9,295.2L75.91,296.43L76.04,221.14L76.41,312.22L76.62,290.45L76.63,299.28L76.65,302.77L77.01,189.35L77.02,186.18L77.08,233.74L77.1,252.16L77.27,173.26L77.88,296.64L77.89,294.56L78.13,306.72L78.74,206.38L78.75,207.29L78.76,209.15L78.82,272.78L78.83,282.77L78.98,205.4L79.34,294.84L79.5,220.43L79.51,223.91L79.84,303.92L80.21,182.03L80.22,184.29L80.23,188.48L80.32,289.08L80.66,158L80.67,150.82L80.81,274L80.93,138.79L81.26,234.1L81.27,250.64L81.43,157.48L81.8,289.52L82.03,279.51L82.04,274.45L82.4,120.3L82.76,268.78L82.78,264.94L82.9,125.85L83.27,282.13L83.48,261.41L83.49,271.34L83.5,274.66L83.63,126.38L83.84,145.72L83.85,136.08L83.88,122.75L84.23,276.02L84.45,238.38L84.46,253.48L84.48,268.74L84.86,110.54L85.09,142.31L85.1,141.19L85.21,268.97L85.35,113.74L85.54,139.9L85.55,126.02L85.7,251.38L85.83,84.51L86.18,241.27L86.19,246.86L86.32,98.86L86.4,203.56L86.41,225.1L86.7,275.31L87.06,59.87L87.07,62.47L87.42,240.85L87.75,101.3L87.76,89.88L87.79,74.22L88.17,250.98L88.36,207.26L88.37,224.85L88.41,256.36L88.77,59.96L89.01,92.26L89.02,92.19L89.13,252.34L89.26,88.44L89.68,173.06L89.69,153.82L89.74,101.14L90.13,270.68L90.37,266.64L90.38,264.63L90.97,55.03L91.25,81.29L91.26,92.36L91.45,61.57L91.84,261.16L92.07,243.89L92.08,240.54L92.69,47.5L92.78,202.69L92.79,216.39L92.93,54.42L93.31,246.7L93.38,127.79L93.39,116.18L93.55,258.81L93.9,52.48L94,206.41L94.01,220.31L94.27,230.64L94.4,39.53L94.57,128.2L94.58,102.05L94.89,29.72L95.27,234.1L95.28,231.71L95.61,25.33L96.12,33.9L96.13,44.28L96.98,246.63L96.99,244.96L97,231.95L97.21,234.33L97.83,48.43L97.84,52.94L98.07,50.43L98.45,236.18L98.54,95.33L98.55,90.07L98.56,88.06L98.64,208.32L98.65,224.89L98.69,252.27L99.05,71.32L99.26,72.44L99.28,63.71L99.41,220.45L99.77,27.35L99.86,142.37L99.87,166.55L100.03,44.04L100.41,240.12L100.64,227.79L100.65,214.74L101.25,58.37L101.37,229.88L101.38,226.23L101.5,63.01L101.87,246.96L102.08,237.14L102.09,247.28L102.34,258.8L102.48,101.19L102.67,138.94L102.68,123.24L102.83,247.39L103.21,64.32L103.46,70.33L103.47,80.02L103.83,255.96L104.19,65.29L104.2,70.39L104.21,81.32L104.44,69.28L104.79,242.99L104.88,124.72L104.89,115.87L104.92,108.21L105.27,268.94L105.28,275.03L105.41,162.29L105.55,286.08L105.63,180.1L105.64,170.6L105.78,280.87L106.39,67.49L106.44,130.98L106.45,158.64L106.64,66.3L107.24,265.96L107.25,268.64L107.29,239.53L107.3,223.37L107.48,274.52L108.1,109.69L108.11,110.09L108.12,117.6L108.72,271.61L108.83,152.25L108.84,150.21L108.91,229.17L108.92,245.43L108.96,277.19L109.33,94.41L109.56,96.01L109.57,94.75L109.93,264.21L110.02,133.45L110.03,121.86L110.06,107.68L110.43,271.03L110.63,239.47L110.64,255.68L110.68,285.77L111.29,162.45L111.4,284.03L111.41,277.59L111.53,159.1L112.14,296.26L112.15,292.3L112.17,286L112.39,303.02L113,173.39L113.02,175.79L113.03,179.44L113.25,165.27L113.86,296.13L113.87,291.95L114.1,309.35L114.73,196.76L114.75,199.33L114.98,193.7L115.56,295.09L115.57,294.21L115.58,289.3L115.82,297.8L116.18,157.1L116.46,168.36L116.47,181.01L116.66,158.71L117.27,299.85L117.28,298.53L117.52,304.93L118.16,201.22L118.18,212.24L118.19,228.19L118.65,193.06L118.74,289.98L118.97,285.68L118.98,292.34L119.23,313.54L119.39,225.17L119.53,245.9L119.54,240.04L119.61,213.81L119.72,315.76L120.16,268.94L120.17,283.98L120.36,233.18L120.46,318.1L120.94,315.34L120.95,318.36L121.09,258.08L121.1,250.81L121.16,305.93L121.23,246.16L121.24,237.57L121.34,204.95L121.69,292.85L121.9,278.42L121.91,285.05L122.09,211.5L122.41,291.17L122.54,257.68L122.55,254.36L122.9,290.53L123.07,204.25L123.33,220.43L123.34,236.05L123.8,206.96L124.12,287.83L124.13,291.52L124.17,268.74L124.18,258.16L124.37,276.98L124.78,189.1L124.97,218.4L124.98,219.08L125.02,193.14L125.36,292.11L125.55,277.02L125.56,285.7L125.6,301.57L126,229.6L126.2,251.37L126.21,250.14L126.49,192L126.82,282.83L127,203.4L127.01,218.03L127.06,272.43L127.24,189.87L127.79,267.09L127.8,273.37L127.81,274.76L127.97,197.81L128.08,213.76L128.09,203.1L128.29,261.36L128.71,165.03L128.77,239.44L128.78,241.85L128.95,141.96L129.47,199L129.48,210.48L129.76,258.35L130.16,160.4L130.26,240.24L130.27,230.47L130.66,125.23L130.99,236.02L131.03,206.32L131.04,194.01L131.23,238.74L131.64,123.51L131.81,170.16L131.82,177.87L131.89,149.28L132.45,251.05L132.6,196.69L132.61,195.5L133.19,285.08L133.24,246.41L133.25,236.82L133.44,279.78L133.84,193.34L134.04,215.96L134.05,213.86L134.34,187.4L134.67,269.07L134.76,247.42L134.77,247.97L134.91,279.32L135.56,155.07L135.6,204.35L135.61,214.44L135.63,222.55L136.04,125.15L136.26,150.27L136.27,136.45L136.66,124.06L136.85,221.79L136.95,180.79L136.96,185.08L137.02,169.07L137.34,267.9L137.7,197.55L137.71,199.38L137.75,184.27L137.8,234.18L137.81,244.2L138.32,264.03L138.4,196.55L138.47,197.23L138.48,188.8L138.49,185.52L138.81,266.28L139.03,244.26L139.04,255.74L139.23,194.87L139.8,289.78L139.82,283.88L139.83,276.66L140.04,280.86L140.45,188.05L140.63,213.43L140.64,216.39L140.77,263.27L140.94,179.84L141.05,206.55L141.06,183.05L141.08,172.38L141.5,247.27L141.73,244.4L141.74,248.07L141.77,229.56L141.78,204.13L141.8,172.82L142.48,268.41L142.52,211.38L142.53,204.32L142.73,256.97L142.9,190.28L143.18,221.55L143.19,233.17L143.87,193.05L143.95,275.87L143.97,266.33L143.98,245.64L144.37,167.66L144.7,268.68L144.72,261.79L144.73,251.71L144.94,290.04L145.35,191.58L145.52,213.58L145.53,217.8L145.66,264.26L145.96,186.23L146.06,203.75L146.07,195.15L146.08,193.1L146.4,279.18L146.52,256L146.53,254.85L146.65,293.57L147.3,211.07L147.32,218.51L147.33,234.28L147.38,287.42L147.79,210.4L148.1,279.8L148.11,283.19L148.12,284L148.19,232.9L148.27,236.85L148.28,229L148.36,270.37L148.78,197.6L148.82,252.46L148.83,273.73L148.85,285.45L149.25,205.52L149.49,209.99L149.5,199.74L149.51,197.38L149.58,254.96L150.03,239.57L150.04,250.08L150.49,205.06L150.56,293.82L150.82,284.2L150.84,264.88L151.21,225.26L151.29,304.49L151.6,239.06L151.61,235.24L151.71,221.49L151.75,256.08L151.76,263.26L151.79,273.89L152.19,180.1L152.41,195.67L152.42,192.27L152.57,167.51L153,245.71L153.14,217.19L153.15,216.78L153.17,210L153.5,282.17L153.72,273.29L153.73,274.51L154.22,280.61L154.39,196.46L154.42,226.77L154.43,242.41L154.64,206.31L155.21,300.61L155.24,290.13L155.25,280.16L155.44,293.97L155.86,205.08L156.06,211.94L156.07,211.56L156.11,203.57L156.19,285.52L156.66,280.62L156.67,286.41L156.92,293.89L157.09,231.33L157.22,231.59L157.23,226.97L157.4,287.98L157.58,204.96L157.85,244.39L157.86,260.78L158.07,214.32L158.64,296.3L158.65,294.28L158.87,298.64L159.53,211.22L159.54,214.42L159.55,228.01L159.75,207.04L160.1,302.46L160.34,302L160.35,306.3L160.36,306.84L160.4,276.34L160.41,265.47L160.58,301.64L161.22,193.35L161.23,193.8L161.24,195.63L161.3,269.87L161.31,280.53L161.46,186.8L162.06,300.71L162.08,297.61L162.09,294.37L162.3,300.64L162.93,191.25L162.95,196.73L162.96,198.12L163.04,290.27L163.42,178.23L163.61,207.93L163.62,201.71L163.79,293.39L164.15,193.19L164.22,253.2L164.23,267.28L164.4,191.54L164.75,287.96L164.87,211.73L164.88,209.15L164.92,206.7L165,288.22L165.2,264.29L165.21,278.25L165.5,303.5L165.87,201.06L165.88,201.13L165.98,289.12L166.11,191.38L166.29,216.22L166.31,208.24L166.36,183.76L166.96,295.71L166.97,296.01L167.22,302.42L167.58,159.96L167.66,260.19L167.67,273.03L167.69,282.9L168.07,135.45L168.25,167.64L168.26,155.83L168.3,120.8L168.68,276.64L168.9,276.41L168.91,284.49L168.93,291.6L169.29,178.11L169.49,202.3L169.5,196.19L169.54,181.03L169.89,286.88L170.11,262.49L170.12,274.29L170.27,167.4L170.65,291.22L170.75,197.36L170.76,194.22L170.77,193.92L170.8,208.12L170.81,219.53L170.88,293.35L171.5,151.24L171.53,173.11L171.54,179.92L171.99,145.54L172.11,280.93L172.34,279.69L172.35,282.59L172.36,282.96L172.38,270.05L172.39,254.46L172.72,146.4L173.08,276.79L173.18,173.89L173.19,167.47L173.32,278.41L173.7,139.21L173.78,245.86L173.79,261.45L173.82,277.9L174.2,121.76L174.37,132.26L174.38,113.68L174.43,76.01L175.03,247.32L175.04,244.67L175.17,86.97L175.54,253.38L175.75,230.15L175.76,241.96L175.79,255.51L176.14,90.06L176.35,121.51L176.36,108.89L176.5,245.31L176.88,80L176.98,222.28L176.99,228.01L177.11,83.65L177.21,205.74L177.22,222.83L177.5,271.04L177.86,118.18L177.99,252.08L178,239.25L178.22,263.16L178.84,88.46L178.85,93.85L179.22,264.5L179.55,96.6L179.56,90.55L179.57,89.11L179.63,169.25L179.64,192.35L179.7,258.43L180.31,58.2L180.33,68.88L180.34,79.98L180.55,60.85L180.93,263.07L181.07,114.46L181.08,124.54L181.15,243.77L181.78,45.69L181.79,48.49L182.4,243.29L182.49,103.02L182.5,97.48L182.51,94.91L182.63,254.86L182.64,256.73L182.76,91.55L182.86,234.55L182.87,239.42L183,57.25L183.08,194.07L183.09,212.34L183.11,231.26L183.49,26.89L183.7,38.94L183.71,30.59L183.73,22.89L184.1,219.61L184.11,219.99L184.22,65.96L184.58,233.98L184.77,155.09L184.78,178.95L184.82,235.32L185.2,57.58L185.54,206.82L185.55,219.44L185.69,73.2L186.07,266.77L186.16,137.85L186.17,126.46L186.29,255.27L186.67,60.45L186.94,95.12L186.95,106.22L187.15,67.28L187.78,265.88L187.79,263.51L187.8,253.87L188.01,255.16L188.63,88.97L188.65,100.65L188.66,110.51L188.87,81.76L189.24,248.91L189.38,127.4L189.39,136.66L189.49,262.22L189.85,89.41L190.06,108.38L190.07,96.82L190.21,238.29L190.34,64.71L190.67,198.15L190.68,215.48L190.83,66.66L191.21,255.22L191.32,92.7L191.33,92.94L191.43,238.91L191.81,54.83L192.01,113.2L192.02,102.46L192.05,88.72L192.41,259.34L192.61,200.55L192.62,222.16L192.92,275.29L193.28,133.1L193.39,261.59L193.4,257.54L193.77,113.8L194.12,262.71L194.23,151.07L194.24,144.31L194.26,138.14L194.62,278.9L194.81,214.05L194.82,233.01L195.23,114.36L195.59,279.21L195.6,274.88L195.73,160.99L196.33,293.43L196.34,295.5L196.38,276.9L196.39,266.45L196.57,295.89L197.19,150.45L197.23,168.25L197.25,187.92L197.68,122.73L198.04,276.42L198.05,278.9L198.13,175.71L198.14,163.56L198.29,272.22L198.91,95.07L198.94,117.93L198.95,134.51L199.14,95.83L199.76,278.38L199.77,276.85L200.12,98.53L200.23,258.4L200.24,261.7L200.37,103.65L200.73,265.56L200.93,215.76L200.94,237.54L201.1,172.25L201.48,298.86L201.71,289.69L201.72,281.94L202.33,166.08L202.51,210.6L202.52,201.62L202.81,157.55L202.95,280.33L203.18,279.93L203.19,280.85L203.56,137.33L203.86,219.23L203.87,238.47L204.05,171.59L204.4,281.97L204.64,277.55L204.65,281.45L204.66,281.64L204.68,268.57L204.69,258.13L204.78,189.4L205.14,290.29L205.46,223.67L205.47,221.67L205.87,287.82L206.03,196.8L206.07,242.21L206.08,258.92L206.24,203.54L206.62,296.88L206.85,294.32L206.86,286.12L207,189.8L207.64,223.58L207.65,223.38L207.75,202.75L208.08,286.33L208.37,250.82L208.38,245.27L208.55,281.96L208.73,204.25L208.77,253.8L208.78,281.22L209.21,220.33L209.3,298.95L209.43,222.6L209.44,218.99L209.45,215.78L209.79,301.99L209.99,277.69L210,288.97L210.24,323.24L210.43,185.91L210.61,201.68L210.62,199.97L210.69,182.68L210.73,234.39L210.74,249.92L210.77,271.36L210.93,187.35L211.49,253.06L211.5,256.23L211.51,256.77L211.57,222.39L211.63,230.13L211.64,221.03L211.99,277.01L212.15,186.88L212.41,192.04L212.42,202.23L212.64,190.02L213.21,270.91L213.22,272.54L213.28,238.16L213.29,231.89L213.47,284.01L213.87,188.61L214.12,199.51L214.13,208.37L214.36,193.39L214.93,282.81L214.94,283L215.18,283.99L215.58,190.56L215.85,201.66L215.86,215.46L216.07,192.24L216.4,270.89L216.64,269.46L216.65,271.03L216.9,277.68L217.29,184.05L217.34,247.03L217.35,260.27L217.38,272.68L217.78,162.78L217.91,186.57L217.92,177.95L218.04,149.85L218.11,224.27L218.57,208.47L218.58,217.3L218.89,159.32L219.09,238.9L219.23,176.91L219.24,163.59L219.38,147.84L219.58,226.51L219.99,157.37L220,158.51L220.81,261.14L220.82,252.65L220.83,232.92L221.05,265.28L221.46,175.7L221.6,194.96L221.61,190.3L221.7,184.69L221.79,262.19L221.93,206.95L221.94,202.01L222.04,261.65L222.44,190.76L222.49,226.48L222.5,231.43L222.52,233.59L222.66,169.19L222.67,156.32L222.76,212.24L222.92,126.93L223.37,179.26L223.38,176.99L223.5,214.8L224.16,102.92L224.18,116.34L224.19,128.54L224.4,84.54L224.72,161.19L224.96,154.81L224.97,151.38L225.01,96.92L225.66,185.12L225.67,197.82L225.76,153.05L226.43,261.5L226.46,233.69L226.47,215.16L226.68,246.49L227.23,150.24L227.26,174.36L227.27,181.64L227.29,191.35L227.83,113.62L227.93,139.06L227.94,119.58L228.2,91.49L228.6,208.53L228.61,217.78L229.12,271.19L229.29,187.86L229.39,245.21L229.4,222.64L229.61,236.53L229.91,152.71L230.16,171.41L230.17,180.33L230.59,273.01L230.93,194.11L230.94,196.55L231.38,148.96L231.57,240.38L231.7,200.91L231.71,194.95L231.99,157.18L232.32,248.67L232.45,200.7L232.46,196.41L232.55,237.23L232.72,158.62L233,201.16L233.01,214.89L233.33,155.96L233.78,257.22L233.79,255.2L233.8,248.15L234.03,259.01L234.44,163.22L234.6,185.12L234.61,189.41L234.68,172.57L235.24,279.2L235.39,205.48L235.41,201.93L235.99,270.46L236.01,247.24L236.02,231.17L236.23,269.65L236.63,177.88L236.81,189.3L236.82,189.92L236.87,179.68L237.45,274.15L237.59,234.25L237.6,225.14L237.69,271.93L237.86,198.05L238.36,206.07L238.37,220.19L238.42,273.38L238.6,199.08L239.15,268.22L239.16,270.67L239.2,252.33L239.21,245.77L239.58,194.23L239.65,274.07L239.88,268.54L239.89,269.72L240.31,183.2L240.59,231.7L240.6,239.99L240.87,280.16L241.18,187.23L241.35,243.48L241.36,241.48L241.65,177.88L242.06,251.04L242.07,257.54L242.15,199.57L242.58,278.83L242.73,238.7L242.74,231.84L242.82,275.97L243.38,187.69L243.5,204.02L243.51,218.82L243.6,188.69L244.3,272.4L244.31,271.27L244.71,195.47L245.13,220.71L245.14,221.38L245.19,212.75L245.25,267.8L245.26,275.75L245.44,214.17L245.52,284.29L245.93,239.13L245.94,238.48L246.01,290.79L246.42,196.64L246.59,203.85L246.6,203.27L246.66,198.4L246.69,229.41L246.7,246.56L246.73,271.05L246.91,204.02L247.47,270.43L247.48,271.57L248.13,195.53L248.17,242.66L248.18,253.32L248.38,205.48L248.69,278.31L248.87,210.52L248.88,211.8L249.08,210.84L249.19,289.08L249.67,275.12L249.68,273.24L249.85,202.04L250.4,273.32L250.41,277.54L250.45,233.87L250.46,225.29L250.58,213.65L250.91,280.42L251.11,267.72L251.12,279.11L251.38,293.27L251.77,210.38L251.78,209.19L251.8,208.35L251.82,226.16L251.83,242.35L252.05,212.8L252.61,293.2L252.62,295.21L252.86,298.78L253.25,213.78L253.31,263.19L253.32,276.48L253.35,290.63L253.95,177.03L253.96,173.28L253.98,170.92L254.05,239.88L254.06,256.72L254.21,178.81L254.59,301.95L254.83,290.27L254.84,275.25L255.07,286.78L255.44,156.51L255.64,192.35L255.65,181.51L255.69,156.23L256.28,284.71L256.29,289.88L256.3,292.12L256.43,188.91L256.6,199.45L256.61,186.44L256.9,140.32L257.02,274.7L257.26,272.15L257.27,274.89L257.4,155.85L257.77,281.17L257.96,245.45L257.97,260.08L258.01,287.2L258.63,151.41L258.64,154.45L258.74,274L259.11,122.49L259.3,170.69L259.31,156.68L259.36,127.11L259.74,275L259.96,271.4L259.97,272.91L260.02,212.44L260.03,193.83L260.21,263.35L260.34,93.24L260.83,100.05L260.84,103.71L261.45,287.57L261.55,176.34L261.56,170.09L261.57,168.94L261.63,244.45L261.64,262.47L261.67,288.73L261.81,151.33L262.31,154.19L262.32,160.11L262.54,136.73L262.91,284.3L263,171.89L263.01,167.47L263.16,291.39L263.52,153.89L263.58,212.17L263.59,232.91L263.63,278.11L264.25,117.62L264.27,127.81L264.29,138.49L264.5,121.58L264.88,278.54L264.99,128.56L265,130.99L265.23,83.06L265.59,259.37L265.67,152.27L265.68,138.71L265.72,117.65L266.08,262.09L266.3,252.74L266.31,264.23L266.59,280.78L266.71,142.02L266.89,170.9L266.9,156.54L267.06,266.26L267.68,102.13L267.69,105.19L267.93,84.18L268.3,307.44L268.54,261.09L268.55,252.88L268.66,103.97L269.04,271.36L269.26,270.2L269.27,267.9L269.39,109.42L269.77,295.87L269.94,242.41L269.96,261.24L270.02,306.93L270.61,104.69L270.62,103.18L270.97,268.39L271.06,155.23L271.07,138.45L271.35,107.22L271.48,272.51L271.71,272.44L271.72,276.58L271.73,277.4L271.76,240.5L271.77,218.35L272.09,72.35L272.44,251.69L272.57,103.44L272.58,100.01L272.69,258.38L272.82,97.5L273.01,149.41L273.02,135.5L273.07,110.1L273.44,273.78L273.75,147.18L273.76,130.49L274.4,248.85L274.53,81.14L274.54,86.08L274.55,96.46L275.16,274.79L275.39,259.67L275.4,250.03L275.87,258.7L276.25,104.05L276.26,108.26L276.49,99.62L276.87,263.02L276.95,120.01L276.96,108.82L277.09,245.11L277.23,65.21L277.57,234.88L277.58,240.68L277.72,73.34L277.83,243.71L278.05,229.51L278.06,241.86L278.2,93.86L278.57,271.36L278.65,160.2L278.66,148.83L278.81,262.12L279.18,97.53L279.28,240.23L279.29,249.36L279.3,253.73L279.43,86.01L279.65,89.21L279.66,82.54L279.67,81.52L279.72,143.14L279.73,165.9L279.91,90.03L280.3,267.77L280.51,259.24L280.52,261.21L280.65,116.24L281.2,203.13L281.21,226.3L281.39,129.94L281.75,276.71L281.98,266.89L281.99,272.64L282.01,275.74L282.1,132.56L282.11,122.99L282.23,249.94L282.37,74.15L282.68,190.32L282.69,209.6L282.97,247.72L283.34,87.35L283.46,244.88L283.47,248.11L283.52,193.18L283.53,173.19L283.71,255.03L284.32,57.41L284.33,61.83L284.34,71.58L284.57,61.43L285.18,256.96L285.2,249.86L285.21,241.37L285.43,275.12L286.02,147.34L286.03,140.79L286.15,259.82L286.53,107.75L286.59,184.9L286.6,208.54L286.77,102.96L287.14,266.28L287.37,252.99L287.38,247.33L287.51,82.47L288.11,251.74L288.2,120.88L288.21,109.58L288.23,98.04L288.61,269.87L288.78,222L288.79,230.05L288.85,289.6L289.46,139.3L289.54,244.57L289.56,256.51L289.7,152.4L290.06,278.09L290.19,177.54L290.2,176.96L290.56,292.86L290.67,198.39L290.68,192.91L290.79,283.24L291.17,143.72L291.25,232.93L291.26,248.81L291.42,125.99L292.02,274.37L292.03,274L292.04,269.16L292.28,283.79L292.63,150.66L292.74,261.76L292.75,266.79L292.79,227.1L292.8,215.04L292.88,155.32L293.48,290.46L293.49,290.03L293.62,218.24L293.98,299.25L294.22,288.39L294.23,286.59L294.38,199.48L295.02,225L295.03,225.23L295.11,212.21L295.18,279.02L295.19,283.25L295.35,218.23L295.7,293.64L295.88,247.13L295.89,262.68L296.09,215.23L296.42,290.22L296.59,219.84L296.6,226.83L296.83,211.96L297.4,295.82L297.41,297.26L297.64,298.1L297.81,211.43L298.1,281.85L298.11,291.61L298.38,305.24L298.7,223.81L298.76,227.06L298.77,225.73L298.78,225.12L298.82,259.52L298.84,268.69L299.33,303.44L299.52,204.38L299.53,206.24L299.61,285.59L300.02,199.87L300.23,212.22L300.24,205.53L300.5,199.92L300.84,279.69L300.88,259.84L300.9,257.64L301.05,274.51L301.15,198.24L301.16,195.99L301.22,182.48L301.23,175.73L301.24,174.83L301.29,232.64L301.3,242.55L301.32,249.42L301.73,166.49L301.94,194.1L301.95,189.35L301.98,174.82L302.55,264.83L302.62,231.58L302.63,233.96L302.79,263.61L302.95,194.35L303.19,196.02L303.2,191.35L304.03,272.87L304.05,264.6L304.06,255.37L304.27,282.05L304.91,165.65L304.92,169.42L305.05,169.41L305.74,278.65L305.76,269.25L305.77,259.57L305.98,287.48L306.38,186.36L306.56,202.5L306.58,205.25L306.71,236.43L306.87,163.51L307.16,207.01L307.17,222.22L307.19,237.5L307.85,174.93L307.92,229.57L307.93,230.06L308.09,155.7L308.62,213.82L308.64,229.49L308.83,181.37L309.41,266.8L309.42,264.33L309.43,257.72L309.64,260.95L310.05,183.7L310.22,207.79L310.23,214.7L310.3,190.21L310.62,263.67L311.01,228.4L311.02,219.16L311.03,211.99L311.61,265.57L311.71,259.4L311.73,261.59L312.01,201.18L312.34,270.08L312.53,224.28L312.54,233.69L312.75,206.46L313.32,273.65L313.33,275.62L313.72,177.77L314.02,233.56L314.03,241.5L314.12,196.59L314.78,269.82L314.79,265.07L314.8,252L315.03,272.35L315.57,171.73L315.58,172.73L315.59,177.26L315.81,168.21L316.25,249.35L316.38,212.99L316.39,205.57L316.49,239.47L316.66,160.69L317.16,179.9L317.17,188.92L317.28,179.73L317.72,257.97L317.96,240.3L317.97,241.51L318.01,219.4L318.02,207.94L318.27,132.01L318.7,230.21L318.79,186.93L318.8,191.48L318.95,236.11L319.24,153.03L319.58,213.73L319.59,205.33L319.91,236.7L320.34,145.45L320.37,182.81L320.38,185.26L320.71,121.07L321.15,235.46L321.18,220.68L321.19,211.74L321.64,271.23L321.8,199.95L321.85,251.28L321.86,259.72L322.13,266.93L322.29,192.39L322.46,198.36L322.47,199.37L322.62,242.68L322.78,169.18L323.16,206.92L323.17,201.95L323.6,250.49L323.76,177.8L323.8,213.22L323.81,223.65L323.89,176.82L324.57,257.87L324.59,253.06L324.6,244.1L324.83,254.49L325.37,164.78L325.41,176.14L325.42,177.22L325.47,156.72L325.51,195.27L325.52,208.51L325.62,164.55L326.3,254.04L326.31,250.23L326.32,243.41L326.54,261.5L326.83,178.56L327.11,203.99L327.12,206.47L327.27,247.61L327.68,179.49L327.81,187.12L327.82,184.86L327.83,183.91L327.98,240.62L327.99,246.58L328.26,255.73L328.42,176.16L328.52,178.8L328.53,161.1L329.02,135.71L329.21,209.4L329.27,160.53L329.28,163L329.96,266.92L330.11,222.86L330.12,218.03L330.19,277.37L330.24,220.18L330.25,215.05L330.5,203.86L330.68,261.8L330.89,236.72L330.9,253.28L331.17,277.24L331.24,212.3L331.66,269.79L331.67,268.35L332.2,197.81L332.39,261.02L332.4,260.61L332.45,204.28L332.64,272.13L333.08,236.53L333.09,248.42L333.62,290.56L333.78,213.52L333.79,213.6L333.86,274.72L334.16,211.79L334.49,236.91L334.5,235.78L334.53,227.33L334.85,292.43L335.07,279.77L335.08,285.91L335.1,290.34L335.38,203.95L335.63,207.38L335.64,208.33L336.31,284.49L336.42,223.97L336.43,223.12L336.44,222.86L336.51,238.15L336.52,247.93L337.05,298.38L337.21,205.83L337.29,291.52L337.3,290.7L337.7,202.24L338.03,284.81L338.04,285.23L338.11,222.65L338.52,292.36L338.83,225.15L338.84,227.19L338.93,220.38L339,284.92L339.15,223.49L339.16,221.64L339.19,226.4L339.2,236.6L339.64,213.61L339.99,296.85L340,295.18L340.47,304.16L340.63,213.24L340.71,289.72L340.72,293.35L341.37,201.6L341.43,272.14L341.44,281.89L341.59,211.35L341.96,299.72L342.07,228.2L342.08,222.6L342.19,289.44L342.57,188.12L342.65,264.54L342.67,274.53L343.05,191.27L343.16,285.72L343.28,203.87L343.29,202.21L343.3,201.07L343.39,271.54L343.4,282.46L343.67,299.06L344,209.08L344.01,202.92L344.15,287.18L344.29,185.29L344.6,250.25L344.61,264.72L344.76,193.58L345.39,297.23L345.4,295.45L346.24,188.42L346.29,201.87L346.3,215.99L346.72,168.71L347.08,284.22L347.09,287.19L347.1,291.01L347.46,156.86L347.63,219.41L347.64,209.33L347.83,274.1L348.44,144.89L348.45,145.45L348.46,151.37L348.82,283.31L349.17,160.01L349.18,157.53L349.29,271.91L349.42,127.29L349.63,148.45L349.64,141.36L349.67,135.01L349.78,262.27L350.02,260.15L350.03,261.76L350.15,132.41L350.54,279.07L350.7,203.25L350.71,219.65L350.76,274.05L351.38,126.21L351.42,155.75L351.44,174.08L351.63,126.11L352,269.19L352.22,268.97L352.23,274.46L352.24,276.76L352.37,171.55L352.55,183.95L352.56,173.69L352.61,137.76L353.21,270.75L353.31,171.23L353.32,164.78L353.34,159.08L353.71,280.27L353.89,218.02L353.9,232.3L353.96,279.97L354.57,120.09L354.58,123.86L354.59,129L354.68,252.83L354.81,110.27L355.27,127.01L355.28,121.14L355.29,118.16L355.42,258.92L355.62,225.39L355.63,240.86L355.68,270.52L356.26,99.92L356.27,93.4L356.28,92.58L356.32,134.52L356.33,154.3L356.39,249.28L357,71.21L357.09,207.45L357.11,224.99L357.38,254.41L357.72,83.92L357.73,72.28L357.86,231.65L357.99,59.68L358.31,187.25L358.32,207.38L358.72,80.7L359.09,252.13L359.1,252.4L359.71,65.27L359.78,174.46L359.79,194.24L359.95,48.61L360.56,240.28L360.57,239.79L360.82,245.94L361.17,51L361.26,188.11L361.27,205.89L361.29,221.81L361.65,36.09L361.88,60.92L361.89,53.3L362.15,31L362.28,213.23L362.29,211.71L362.4,57.93L362.52,227.2L362.96,188.48L362.97,208.32L363.24,250.19L363.62,88.93L363.74,243.99L363.75,236.95L364.24,250.3L364.6,49.48L364.61,54.68L364.62,65.26L364.83,52.3L365.2,234.59L365.34,77.33L365.36,87.66L365.57,79.19L365.96,251.49L366.07,91.62L366.08,92.66L366.18,236.79L366.56,54.96L366.74,118.68L366.75,98.32L366.79,59.39L367.41,243.24L367.43,241.68L367.67,251.14L368.03,51.58L368.12,199.82L368.13,209.99L368.27,55.83L368.38,220.39L368.5,68.13L368.51,61.53L368.52,60.87L368.56,104.21L368.57,128.54L368.76,66.36L369.36,239.61L369.37,243.38L369.38,243.94L369.41,204.84L369.42,180.12L369.61,228.32L369.74,41.27L370.22,48.21L370.23,48.75L370.84,255.54L370.94,150.99L370.95,144.16L371.1,266.77L371.46,112.93L371.51,181.69L371.52,201.48L372.05,249.01L372.19,84.05L372.2,89.15L372.21,99.6L372.81,268.66L373.05,262.85L373.06,258.73L373.66,66.54L373.91,95.69L373.92,103.19L374.52,269.03L374.66,138.68L374.67,148.33L374.75,255.31L375.35,74.13L375.36,68.95L375.41,120.04L375.42,143.74L375.61,79.42L375.98,260.87L376.2,249.43L376.21,259.96L376.24,269.01L376.59,86.77L376.78,162.85L376.79,144.85L376.84,99.35L377.44,263.82L377.52,174.29L377.53,163.16L377.94,278.09L378.3,112.36L378.31,114.89L378.32,119.72L378.66,267.53L378.8,119.44L379,149.35L379.01,138.75L379.03,126.32L379.41,266.34L379.61,245.11L379.62,256.87L379.65,271.66L380.02,114.84L380.21,140.55L380.22,126.88L380.5,103.66L380.61,257.73L380.84,249.36L380.85,260.65L380.99,165.64L381.37,284.4L381.51,196.54L381.52,196.7L381.75,185.93L382.08,287.33L382.33,281.18L382.34,272.2L382.46,182.53L383.07,302.37L383.08,300.76L383.7,198.32L383.98,224.65L383.99,237.91L384.2,219.08L384.77,297.24L384.78,299.05L385.18,206.22L385.23,267.43L385.24,277.71L385.41,208.64L385.51,290.11L385.89,215.18L385.9,210.45L385.91,209.81L385.95,248.63L385.96,262.88L386.16,223.67L386.49,298.21L386.73,294.06L386.74,292.15L387.55,195.77L387.56,196.86L387.57,199.57L388.42,293.62L388.46,268.37L388.47,255.01L388.7,277.28L389.11,203.72L389.23,228.37L389.24,220.46L389.6,193.91L389.91,268.05L389.92,270.14L390.08,227.37L390.14,269.2L390.15,273.77L390.17,277.4L390.54,172.45L390.55,162.77L390.57,148.73L391.15,238.75L391.25,211.92L391.26,214.59L391.31,200.51L391.87,267.12L392,217.92L392.01,212.56L392.04,198.69L392.37,268.2L392.76,210.69L392.77,206.61L392.78,204.93L392.86,268.72L393.3,241.33L393.31,246.94L393.36,267.86L393.76,204.33L394,205.81L394.01,208.9L394.24,207.01L394.57,276.57L394.82,276.47L394.83,276.96L395.07,278.19L395.47,174.14L395.73,192.44L395.74,204.3L395.85,187.97L396.53,258.6L396.54,257.38L397.02,273.35L397.18,190.91L397.25,262.61L397.26,264.41L397.67,160.8L397.98,232.26L397.99,237.84L398.06,187.48L398.49,260.23L398.63,213.43L398.64,204.89L398.73,255.58L399.4,152.76L399.42,168.83L399.43,189.07L399.52,144.78L400.2,249.09L400.25,222.61L400.26,220.25L400.32,235.38L400.37,210.19L400.4,231.57L400.41,245.12L400.51,204.36L401.18,279.56L401.2,267.26L401.21,253.44L401.34,216.16L401.92,285L401.93,283.89L401.94,279.77L402.32,203.87L402.75,241.65L402.76,244.99L403.06,201.99L403.39,273.29L403.43,243.32L403.44,233.57L403.63,258.38L403.92,184.79L404.21,210.82L404.22,214.36L404.41,172.83L404.86,262.33L404.98,218.7L404.99,213.55L405.11,274.71L405.75,190.38L405.76,194.44L405.77,205.28L406.07,267.86L406.48,180.3L406.54,234.69L406.55,239.75L406.64,179.1L407.05,251.88L407.19,219.54L407.2,209.43L407.3,222.94L407.59,141.09L407.97,173.19L407.98,188.78L408.08,172.5L408.77,259.41L408.78,259.1L408.79,256.48L409.01,260.59L409.55,181.71L409.6,202.98L409.61,205.96L409.66,180.18L409.71,214.77L409.72,225.42L409.8,179.84L410.48,266.17L410.5,261.83L410.51,253.19L410.97,278.65L411.29,201.09L411.31,205.01L411.32,207.84L411.46,251.69L411.75,185.31L412.09,225.48L412.1,219.88L412.44,269.69L412.85,194.78L412.87,203.4L412.88,217.19L412.93,260.32L413.47,164.81L413.62,211.42L413.63,213.07L413.72,197.52L414.4,271.93L414.43,241.72L414.44,225.53L414.64,261.76L415.18,162.79L415.22,196.55L415.23,205.94L415.3,190.05L415.85,272.48L416,223.15L416.01,217.19L416.11,272.72L416.65,179.82L416.78,197.38L416.79,207.36L416.89,182.42L417.57,276.57L417.58,276.4L417.59,272.56L417.82,281.75L418.23,215.32L418.37,219.81L418.38,221.9L418.49,214.25L418.56,270.27L419.2,251.68L419.21,243.97L419.53,290.64L419.7,222.42L419.96,236.4L419.97,252.39L420.17,220.78L420.26,287.01L420.75,286.99L420.76,289.02L421.09,214.85L421.44,249.43L421.45,261.44L421.84,213.83L422.22,288.36L422.23,289.36L422.8,216.35L422.91,253.32L422.92,264.39L423.35,219.38L423.7,293.99L423.71,289.68L423.83,222.78L424.2,307.47L424.5,241.64L424.51,239.36L424.56,232.42L424.67,296.73L425.11,266.31L425.12,278.14L425.33,246L425.9,307.45L425.91,307.17L425.92,304.55L426.13,309.3L426.77,213.73L426.81,232.93L426.82,245.05L427.01,225.63L427.6,305.5L427.61,306.77L427.95,235.66L428.31,269.75L428.32,277.59L428.41,239.77L428.83,290.77L428.99,246.85L429,246.65L429.56,305.04L429.69,248.16L429.7,245.76L429.82,302.91L429.97,233.37L430.28,295.26L430.29,298.38L430.69,232.04L430.79,309.19L430.99,272.94L431,286L431.04,312.47L431.67,222.61L431.68,222.64L431.69,224.58L432.51,309.38L432.52,308.83L432.53,309.44L432.59,272.6L432.6,264.58L432.76,315.96L433.14,200.75L433.4,218.73L433.41,229.06L433.49,297.9L433.63,221.09L434.13,236.08L434.14,237.66L434.7,306.94L434.83,230.67L434.84,227.43L434.85,226.45L434.93,290.96L434.94,293.78L435.43,298.14L435.59,214.15L435.65,268.08L435.66,279.83L435.82,209.35L436.2,311.49L436.43,300.4L436.44,291.67L436.56,207.26L436.67,299.61L437.24,228.75L437.25,222.9L437.53,195.71L437.66,299.33L437.86,278.2L437.87,289.8L437.91,306.66L438.46,198.21L438.47,187.67L438.63,284.07L439,151.58L439.12,279.9L439.13,278.45L439.24,160.63L439.63,304.31L439.81,263.76L439.82,277.78L439.85,295.35L440.23,133L440.43,145.06L440.44,133.18L440.58,262.78L440.72,107.56L441.06,259.86L441.07,266.44L441.21,138.83L441.34,282.18L441.62,195.8L441.63,179.7L441.94,103.43L442.3,263.8L442.4,143.03L442.41,134.14L442.43,121.54L442.81,287.04L442.99,250.13L443,265.69L443.05,296.27L443.64,146.13L443.65,143.6L443.77,276.49L443.86,165.68L443.87,155.32L444.01,269.08L444.39,120.58L444.49,265.03L444.5,272.03L444.63,129.57L444.76,276.11L445.04,194.98L445.05,173.81L445.12,97.68L445.72,258.52L445.81,150.63L445.82,136.52L445.86,103.33L446.47,261.64L446.48,260.74L446.84,82.13L447.14,173.12L447.15,196.08L447.57,70.42L447.93,253.87L447.94,259.33L447.95,259.81L447.97,241.94L447.98,217.41L448.19,264.79L448.55,70.34L448.78,73.13L448.79,70.66L448.91,230.84L449.04,54.81L449.22,113.63L449.23,92.01L449.28,42.96L449.88,241.84L449.89,249.65L449.9,252.01L450,101.17L450.01,92.01L450.13,238.41L450.26,52.39L450.59,199.83L450.6,215.1L450.75,63.32L451.12,232.42L451.2,85.12L451.21,71.52L451.24,55.08L451.37,239.19L451.81,192.35L451.82,207.63L451.97,46.67L452.33,227.75L452.43,80.68L452.44,74.11L452.45,68.32L452.82,232.54L453.01,163.83L453.03,188.96L453.33,249.89L453.69,49.98L453.79,218.94L453.8,224L453.88,99.78L453.89,85.02L454.04,231.85L454.18,61.63L454.51,213.66L454.52,223.48L454.67,76.99L455.04,257.39L455.11,158.82L455.12,141.86L455.4,84.28L455.76,252.44L455.89,97.69L455.9,103.04L456.37,93.18L456.5,254.73L456.6,105.22L456.61,95.46L456.76,256.88L457.1,46.04L457.19,179.34L457.2,198.27L457.23,228.38L457.36,53.34L457.96,225.23L457.97,223.86L458.08,57.82L458.47,251.98L458.64,179.34L458.65,200.88L458.7,248.15L458.83,72.62L459.42,247.29L459.43,252.72L459.52,127.69L459.53,111.78L459.81,86.55L460.16,252.3L460.17,257.06L460.18,258.02L460.22,205.24L460.23,177.91L460.41,234.45L460.54,42.44L461.04,66.55L461.05,78.59L461.28,54.2L461.9,263.26L461.91,262.34L462.74,90.86L462.77,110.16L462.78,125.6L462.99,79.2L463.59,269.26L463.6,272.92L463.61,273.56L463.65,235.89L463.66,216.24L463.84,273.17L464.2,118.92L464.44,138.6L464.45,134.9L464.46,134.43L464.5,166.51L464.51,184.76L464.69,141.92L465.3,278.97L465.31,281.43L465.37,226.68L465.38,211.49L465.68,144.89L465.79,272.99L466.02,267.09L466.03,274.77L466.04,277.6L466.17,156.57L466.39,169.2L466.4,163.52L466.41,160.21L466.76,285.28L466.77,290.01L466.78,290.79L466.85,244.27L466.86,238.07L467.03,301.03L467.66,194.11L467.67,197.38L467.68,208.43L467.75,289.1L468.37,169.29L468.47,280.88L468.48,285.11L468.5,286.22L468.54,258.48L468.55,244.29L468.74,289.74L469.11,173.38L469.34,193.52L469.35,190.38L469.46,291.04L469.61,188.26L469.67,261.2L469.68,275.11L469.84,190.05L470.45,301.93L470.46,299.37L471.08,186.63L471.15,272.96L471.16,282.69L471.18,290L471.31,172.62L471.77,204.64L471.78,200.59L471.8,195.35L472.17,295.29L472.36,260.23L472.37,271.52L472.53,181.57L472.89,289.86L473.01,187.88L473.02,181.09L473.06,204L473.07,221.1L473.27,189.36L473.62,294L473.85,287.93L473.86,293.36L473.88,295.4L474.02,215.29L474.17,232.24L474.18,225.82L474.36,285.59L474.76,185.79L474.82,268.24L474.83,277.14L474.98,182.26L475.59,296.39L475.6,292.73L475.61,286.06L475.82,287.24L475.98,199.32L476.43,214.93L476.44,219.11L476.56,281.7L476.65,209.27L476.78,271.82L476.79,278.98L476.87,220.05L477.3,293.1L477.43,246.9L477.44,240.49L477.5,321.18L477.7,205.21L478.2,221.78L478.21,232.89L478.43,212.58L479.01,299.26L479.02,300.8L479.42,199.8L479.71,259.07L479.72,269.75L479.74,279.72L479.91,201.97L480.38,217.14L480.39,213.08L480.43,236.4L480.44,248.41L480.73,287.76L481.13,204.39L481.21,271.45L481.22,268.67L481.62,194.62L481.94,270.42L481.95,273.26L482.1,217.96L482.43,285.03L482.44,288.21L482.45,289.21L482.58,229.24L482.59,222.99L482.68,282.81L483.09,197.88L483.16,266.14L483.17,269.47L483.33,210.48L483.38,263.65L483.39,274.7L483.67,294.68L484.07,229.03L484.08,230.64L484.16,279.95L484.7,178.39L484.76,209.32L484.77,205.67L484.93,171.63L485.37,252.48L485.5,219.33L485.52,211.51L485.87,254.6L486.27,171.71L486.29,183.24L486.3,196.75L486.65,172.24L487.09,258.21L487.1,256.45L487.59,273.99L487.74,198.13L487.82,259.6L487.83,259.29L488.47,151.46L488.64,166.86L488.65,175.74L488.85,156.18L489.3,248.31L489.44,203.4L489.45,196.5L489.51,244.66L489.52,249.73L489.53,252.36L489.95,187.32L490.06,203.4L490.07,194.52L490.19,190.52L490.23,220.98L490.24,233.77L490.27,254.77L490.93,185.95L490.97,215.13L490.98,222.25L491.25,248.09L491.64,186.82L491.65,182.82L491.99,256.6L492.35,224.14L492.36,222.37L492.48,263.65L493.02,181.94L493.14,197.39L493.15,208.46L493.2,246.23L493.86,173.29L493.9,209.47L493.91,219.56L493.94,235.76L494.01,171.59L494.65,215.62L494.66,219.54L494.67,219.75L494.69,207.41L494.7,190.05L494.73,153.85L495.41,232.24L495.46,169.45L495.47,171.52L495.9,239.39L496.27,228.25L496.28,220.01L496.38,242.22L496.68,172.26L497.05,179.98L497.06,188.1L497.18,186.99L497.36,252.3L497.85,244.11L497.86,244.23L498.1,256.01L498.26,178.72L498.55,218.14L498.56,230.57L498.59,247.33L499.13,144.77L499.24,174.2L499.25,173.58L499.58,249.66L499.88,166.09L499.96,175.42L499.97,166.78L500.05,218.13L500.35,153.74L500.65,192.8L500.66,197.82L500.79,237.39L500.85,178.57L501.35,188.32L501.36,189.08L501.58,155.25L501.77,228.58L502.06,181.19L502.07,169.51L502.26,221.64L502.67,135.7L502.75,197.22L502.76,198.05L503.16,136.7L503.44,174.65L503.45,185.56L503.78,142.9L503.97,207.85L504.14,147.14L504.15,146.98L504.28,141.63L504.94,255.95L504.98,222.55L504.99,203.59L505.01,190.49L505.68,265.94L505.69,267.14L505.86,203.03L506.19,268.11L506.37,239.94L506.38,250.34L506.43,281.83L506.96,188.64L507.07,192.45L507.08,190.26L507.89,261.95L507.9,260.86L507.91,257.09L508.43,197.13L508.62,264.44L508.69,224.97L508.7,230.09L508.8,221.24L509.36,286.82L509.42,235.67L509.43,233.54L509.52,229.19L509.55,246.45L509.56,258.12L509.78,241.38L509.86,294.77L510,244.99" style="vector-effect: non-scaling-stroke; fill: none; stroke: rgb(141, 160, 203); stroke-opacity: 1; stroke-width: 2px; opacity: 1;"/></g><g class="points"/><g class="text"/></g></g></g><g class="overplot"/><path class="xlines-above crisp" style="fill: none;" d="M0,0"/><path class="ylines-above crisp" style="fill: none;" d="M0,0"/><g class="overlines-above"/><g class="xaxislayer-above"><g class="xtick"><text text-anchor="middle" x="0" y="473" transform="translate(104.97999999999999,0)" style="font-family: 'Open Sans', verdana, arial, sans-serif; font-size: 12px; fill: rgb(68, 68, 68); fill-opacity: 1; white-space: pre;">2016</text></g><g class="xtick"><text text-anchor="middle" x="0" y="473" transform="translate(194.56,0)" style="font-family: 'Open Sans', verdana, arial, sans-serif; font-size: 12px; fill: rgb(68, 68, 68); fill-opacity: 1; white-space: pre;">2017</text></g><g class="xtick"><text text-anchor="middle" x="0" y="473" transform="translate(283.89,0)" style="font-family: 'Open Sans', verdana, arial, sans-serif; font-size: 12px; fill: rgb(68, 68, 68); fill-opacity: 1; white-space: pre;">2018</text></g><g class="xtick"><text text-anchor="middle" x="0" y="473" transform="translate(373.22,0)" style="font-family: 'Open Sans', verdana, arial, sans-serif; font-size: 12px; fill: rgb(68, 68, 68); fill-opacity: 1; white-space: pre;">2019</text></g><g class="xtick"><text text-anchor="middle" x="0" y="473" transform="translate(462.56,0)" style="font-family: 'Open Sans', verdana, arial, sans-serif; font-size: 12px; fill: rgb(68, 68, 68); fill-opacity: 1; white-space: pre;">2020</text></g><g class="xtick"><text text-anchor="middle" x="0" y="473" transform="translate(552.13,0)" style="font-family: 'Open Sans', verdana, arial, sans-serif; font-size: 12px; fill: rgb(68, 68, 68); fill-opacity: 1; white-space: pre;">2021</text></g></g><g class="yaxislayer-above"><g class="ytick"><text text-anchor="end" x="59" y="4.199999999999999" transform="translate(0,408.52)" style="font-family: 'Open Sans', verdana, arial, sans-serif; font-size: 12px; fill: rgb(68, 68, 68); fill-opacity: 1; white-space: pre;">200k</text></g><g class="ytick"><text text-anchor="end" x="59" y="4.199999999999999" transform="translate(0,338.66)" style="font-family: 'Open Sans', verdana, arial, sans-serif; font-size: 12px; fill: rgb(68, 68, 68); fill-opacity: 1; white-space: pre;">300k</text></g><g class="ytick"><text text-anchor="end" x="59" y="4.199999999999999" transform="translate(0,268.8)" style="font-family: 'Open Sans', verdana, arial, sans-serif; font-size: 12px; fill: rgb(68, 68, 68); fill-opacity: 1; white-space: pre;">400k</text></g><g class="ytick"><text text-anchor="end" x="59" y="4.199999999999999" transform="translate(0,198.94)" style="font-family: 'Open Sans', verdana, arial, sans-serif; font-size: 12px; fill: rgb(68, 68, 68); fill-opacity: 1; white-space: pre;">500k</text></g><g class="ytick"><text text-anchor="end" x="59" y="4.199999999999999" transform="translate(0,129.07999999999998)" style="font-family: 'Open Sans', verdana, arial, sans-serif; font-size: 12px; fill: rgb(68, 68, 68); fill-opacity: 1; white-space: pre;">600k</text></g><g class="ytick"><text text-anchor="end" x="59" y="4.199999999999999" transform="translate(0,59.22)" style="font-family: 'Open Sans', verdana, arial, sans-serif; font-size: 12px; fill: rgb(68, 68, 68); fill-opacity: 1; white-space: pre;">700k</text></g></g><g class="overaxes-above"/></g></g><g class="polarlayer"/><g class="ternarylayer"/><g class="geolayer"/><g class="funnelarealayer"/><g class="pielayer"/><g class="treemaplayer"/><g class="sunburstlayer"/><g class="glimages"/><defs id="topdefs-7ff8ac"><g class="clips"/><clipPath id="legend7ff8ac"><rect width="110" height="48" x="0" y="0"/></clipPath></defs><g class="layer-above"><g class="imagelayer"/><g class="shapelayer"/></g><g class="infolayer"><g class="legend" pointer-events="all" transform="translate(580.2, 25)"><rect class="bg" shape-rendering="crispEdges" style="stroke: rgb(68, 68, 68); stroke-opacity: 1; fill: rgb(255, 255, 255); fill-opacity: 1; stroke-width: 0px;" width="110" height="48" x="0" y="0"/><g class="scrollbox" transform="translate(0, 0)" clip-path="url('#legend7ff8ac')"><g class="groups"><g class="traces" style="opacity: 1;" transform="translate(0, 14.5)"><text class="legendtext" text-anchor="start" x="40" y="4.680000000000001" style="font-family: 'Open Sans', verdana, arial, sans-serif; font-size: 12px; fill: rgb(68, 68, 68); fill-opacity: 1; white-space: pre;">demand</text><g class="layers" style="opacity: 1;"><g class="legendfill"/><g class="legendlines"><path class="js-line" d="M5,0h30" style="fill: none; stroke: rgb(102, 194, 165); stroke-opacity: 1; stroke-width: 2px;"/></g><g class="legendsymbols"><g class="legendpoints"/></g></g><rect class="legendtoggle" x="0" y="-9.5" width="104.59375" height="19" style="fill: rgb(0, 0, 0); fill-opacity: 0;"/></g><g class="traces" style="opacity: 1;" transform="translate(0, 33.5)"><text class="legendtext" text-anchor="start" x="40" y="4.680000000000001" style="font-family: 'Open Sans', verdana, arial, sans-serif; font-size: 12px; fill: rgb(68, 68, 68); fill-opacity: 1; white-space: pre;">generation</text><g class="layers" style="opacity: 1;"><g class="legendfill"/><g class="legendlines"><path class="js-line" d="M5,0h30" style="fill: none; stroke: rgb(141, 160, 203); stroke-opacity: 1; stroke-width: 2px;"/></g><g class="legendsymbols"><g class="legendpoints"/></g></g><rect class="legendtoggle" x="0" y="-9.5" width="104.59375" height="19" style="fill: rgb(0, 0, 0); fill-opacity: 0;"/></g></g></g><rect class="scrollbar" rx="20" ry="3" width="0" height="0" style="fill: rgb(128, 139, 164); fill-opacity: 1;" x="0" y="0"/></g><g class="g-gtitle"><text class="gtitle" x="350" y="12.5" text-anchor="middle" dy="0em" style="font-family: 'Open Sans', verdana, arial, sans-serif; font-size: 17px; fill: rgb(68, 68, 68); opacity: 1; font-weight: normal; white-space: pre;">US Electricity Demand vs. Supply (Hourly)</text></g><g class="g-xtitle" transform="translate(0,-15)"><text class="xtitle" x="315" y="512" text-anchor="middle" style="font-family: 'Open Sans', verdana, arial, sans-serif; font-size: 14px; fill: rgb(68, 68, 68); opacity: 1; font-weight: normal; white-space: pre;">Source: US Energy Information Administration (Mar 2021)</text></g><g class="g-ytitle"><text class="ytitle" transform="rotate(-90,22,242.5)" x="22" y="242.5" text-anchor="middle" style="font-family: 'Open Sans', verdana, arial, sans-serif; font-size: 14px; fill: rgb(68, 68, 68); opacity: 1; font-weight: normal; white-space: pre;">Mwh</text></g></g></svg>